%TF.GenerationSoftware,KiCad,Pcbnew,7.0.10*%
%TF.CreationDate,2024-04-05T22:28:22-04:00*%
%TF.ProjectId,finalIOTproject,66696e61-6c49-44f5-9470-726f6a656374,rev?*%
%TF.SameCoordinates,Original*%
%TF.FileFunction,Soldermask,Top*%
%TF.FilePolarity,Negative*%
%FSLAX46Y46*%
G04 Gerber Fmt 4.6, Leading zero omitted, Abs format (unit mm)*
G04 Created by KiCad (PCBNEW 7.0.10) date 2024-04-05 22:28:22*
%MOMM*%
%LPD*%
G01*
G04 APERTURE LIST*
G04 Aperture macros list*
%AMRoundRect*
0 Rectangle with rounded corners*
0 $1 Rounding radius*
0 $2 $3 $4 $5 $6 $7 $8 $9 X,Y pos of 4 corners*
0 Add a 4 corners polygon primitive as box body*
4,1,4,$2,$3,$4,$5,$6,$7,$8,$9,$2,$3,0*
0 Add four circle primitives for the rounded corners*
1,1,$1+$1,$2,$3*
1,1,$1+$1,$4,$5*
1,1,$1+$1,$6,$7*
1,1,$1+$1,$8,$9*
0 Add four rect primitives between the rounded corners*
20,1,$1+$1,$2,$3,$4,$5,0*
20,1,$1+$1,$4,$5,$6,$7,0*
20,1,$1+$1,$6,$7,$8,$9,0*
20,1,$1+$1,$8,$9,$2,$3,0*%
G04 Aperture macros list end*
%ADD10C,1.524000*%
%ADD11R,1.524000X1.524000*%
%ADD12C,1.600000*%
%ADD13O,1.600000X1.600000*%
%ADD14R,2.000000X2.000000*%
%ADD15C,2.000000*%
%ADD16R,1.700000X1.700000*%
%ADD17O,1.700000X1.700000*%
%ADD18C,3.200000*%
%ADD19RoundRect,0.102000X-0.750000X0.750000X-0.750000X-0.750000X0.750000X-0.750000X0.750000X0.750000X0*%
%ADD20C,1.704000*%
G04 APERTURE END LIST*
D10*
%TO.C,J5*%
X164420000Y-74600000D03*
X162420000Y-74600000D03*
X160420000Y-74600000D03*
D11*
X158420000Y-74600000D03*
%TD*%
D12*
%TO.C,R6*%
X148260000Y-92380000D03*
D13*
X158420000Y-92380000D03*
%TD*%
D12*
%TO.C,R5*%
X150800000Y-87300000D03*
D13*
X160960000Y-87300000D03*
%TD*%
D14*
%TO.C,K1*%
X117912500Y-56942500D03*
D15*
X117912500Y-59482500D03*
X117912500Y-67102500D03*
X122992500Y-67102500D03*
X122992500Y-59482500D03*
X122992500Y-56942500D03*
%TD*%
D11*
%TO.C,J8*%
X125940000Y-77085000D03*
D10*
X127940000Y-77085000D03*
X129940000Y-77085000D03*
X131940000Y-77085000D03*
%TD*%
D16*
%TO.C,J7*%
X120320000Y-72060000D03*
D17*
X120320000Y-74600000D03*
%TD*%
D11*
%TO.C,J6*%
X158420000Y-82220000D03*
D10*
X160420000Y-82220000D03*
X162420000Y-82220000D03*
X164420000Y-82220000D03*
%TD*%
D16*
%TO.C,J1*%
X127940000Y-97460000D03*
D17*
X130480000Y-97460000D03*
X133020000Y-97460000D03*
X135560000Y-97460000D03*
X138100000Y-97460000D03*
X140640000Y-97460000D03*
X143180000Y-97460000D03*
X145720000Y-97460000D03*
%TD*%
D16*
%TO.C,J3*%
X150800000Y-97460000D03*
D17*
X153340000Y-97460000D03*
X155880000Y-97460000D03*
X158420000Y-97460000D03*
X160960000Y-97460000D03*
X163500000Y-97460000D03*
%TD*%
D16*
%TO.C,J2*%
X118796000Y-49200000D03*
D17*
X121336000Y-49200000D03*
X123876000Y-49200000D03*
X126416000Y-49200000D03*
X128956000Y-49200000D03*
X131496000Y-49200000D03*
X134036000Y-49200000D03*
X136576000Y-49200000D03*
X139116000Y-49200000D03*
X141656000Y-49200000D03*
%TD*%
D16*
%TO.C,J4*%
X145720000Y-49200000D03*
D17*
X148260000Y-49200000D03*
X150800000Y-49200000D03*
X153340000Y-49200000D03*
X155880000Y-49200000D03*
X158420000Y-49200000D03*
X160960000Y-49200000D03*
X163500000Y-49200000D03*
%TD*%
D12*
%TO.C,R3*%
X135560000Y-56820000D03*
D13*
X145720000Y-56820000D03*
%TD*%
D12*
%TO.C,R2*%
X145720000Y-72060000D03*
D13*
X135560000Y-72060000D03*
%TD*%
D18*
%TO.C,MH1*%
X115240000Y-49200000D03*
%TD*%
D15*
%TO.C,C2*%
X125400000Y-87300000D03*
D14*
X130400000Y-87300000D03*
%TD*%
D12*
%TO.C,R1*%
X135560000Y-66980000D03*
D13*
X145720000Y-66980000D03*
%TD*%
D12*
%TO.C,R4*%
X145720000Y-61900000D03*
D13*
X135560000Y-61900000D03*
%TD*%
D19*
%TO.C,U1*%
X157730000Y-60630000D03*
D20*
X157730000Y-63170000D03*
X157730000Y-65710000D03*
X157730000Y-68250000D03*
X155190000Y-60630000D03*
X155190000Y-63170000D03*
X155190000Y-65710000D03*
X155190000Y-68250000D03*
%TD*%
D18*
%TO.C,MH2*%
X113970000Y-97460000D03*
%TD*%
%TO.C,MH3*%
X166040000Y-64440000D03*
%TD*%
%TO.C,MH4*%
X166040000Y-92380000D03*
%TD*%
D14*
%TO.C,C1*%
X138100000Y-87300000D03*
D15*
X143100000Y-87300000D03*
%TD*%
M02*
