%TF.GenerationSoftware,KiCad,Pcbnew,7.0.10*%
%TF.CreationDate,2024-04-05T22:28:22-04:00*%
%TF.ProjectId,finalIOTproject,66696e61-6c49-44f5-9470-726f6a656374,rev?*%
%TF.SameCoordinates,Original*%
%TF.FileFunction,Legend,Top*%
%TF.FilePolarity,Positive*%
%FSLAX46Y46*%
G04 Gerber Fmt 4.6, Leading zero omitted, Abs format (unit mm)*
G04 Created by KiCad (PCBNEW 7.0.10) date 2024-04-05 22:28:22*
%MOMM*%
%LPD*%
G01*
G04 APERTURE LIST*
G04 Aperture macros list*
%AMRoundRect*
0 Rectangle with rounded corners*
0 $1 Rounding radius*
0 $2 $3 $4 $5 $6 $7 $8 $9 X,Y pos of 4 corners*
0 Add a 4 corners polygon primitive as box body*
4,1,4,$2,$3,$4,$5,$6,$7,$8,$9,$2,$3,0*
0 Add four circle primitives for the rounded corners*
1,1,$1+$1,$2,$3*
1,1,$1+$1,$4,$5*
1,1,$1+$1,$6,$7*
1,1,$1+$1,$8,$9*
0 Add four rect primitives between the rounded corners*
20,1,$1+$1,$2,$3,$4,$5,0*
20,1,$1+$1,$4,$5,$6,$7,0*
20,1,$1+$1,$6,$7,$8,$9,0*
20,1,$1+$1,$8,$9,$2,$3,0*%
G04 Aperture macros list end*
%ADD10C,0.150000*%
%ADD11C,0.120000*%
%ADD12C,0.127000*%
%ADD13C,0.200000*%
%ADD14C,1.524000*%
%ADD15R,1.524000X1.524000*%
%ADD16C,1.600000*%
%ADD17O,1.600000X1.600000*%
%ADD18R,2.000000X2.000000*%
%ADD19C,2.000000*%
%ADD20R,1.700000X1.700000*%
%ADD21O,1.700000X1.700000*%
%ADD22C,3.200000*%
%ADD23RoundRect,0.102000X-0.750000X0.750000X-0.750000X-0.750000X0.750000X-0.750000X0.750000X0.750000X0*%
%ADD24C,1.704000*%
G04 APERTURE END LIST*
D10*
X100336779Y-78346009D02*
X100670112Y-78346009D01*
X100812969Y-78869819D02*
X100336779Y-78869819D01*
X100336779Y-78869819D02*
X100336779Y-77869819D01*
X100336779Y-77869819D02*
X100812969Y-77869819D01*
X101717731Y-78869819D02*
X101241541Y-78869819D01*
X101241541Y-78869819D02*
X101241541Y-77869819D01*
X102051065Y-78346009D02*
X102384398Y-78346009D01*
X102527255Y-78869819D02*
X102051065Y-78869819D01*
X102051065Y-78869819D02*
X102051065Y-77869819D01*
X102051065Y-77869819D02*
X102527255Y-77869819D01*
X103479636Y-77917438D02*
X103384398Y-77869819D01*
X103384398Y-77869819D02*
X103241541Y-77869819D01*
X103241541Y-77869819D02*
X103098684Y-77917438D01*
X103098684Y-77917438D02*
X103003446Y-78012676D01*
X103003446Y-78012676D02*
X102955827Y-78107914D01*
X102955827Y-78107914D02*
X102908208Y-78298390D01*
X102908208Y-78298390D02*
X102908208Y-78441247D01*
X102908208Y-78441247D02*
X102955827Y-78631723D01*
X102955827Y-78631723D02*
X103003446Y-78726961D01*
X103003446Y-78726961D02*
X103098684Y-78822200D01*
X103098684Y-78822200D02*
X103241541Y-78869819D01*
X103241541Y-78869819D02*
X103336779Y-78869819D01*
X103336779Y-78869819D02*
X103479636Y-78822200D01*
X103479636Y-78822200D02*
X103527255Y-78774580D01*
X103527255Y-78774580D02*
X103527255Y-78441247D01*
X103527255Y-78441247D02*
X103336779Y-78441247D01*
X104670113Y-77965057D02*
X104717732Y-77917438D01*
X104717732Y-77917438D02*
X104812970Y-77869819D01*
X104812970Y-77869819D02*
X105051065Y-77869819D01*
X105051065Y-77869819D02*
X105146303Y-77917438D01*
X105146303Y-77917438D02*
X105193922Y-77965057D01*
X105193922Y-77965057D02*
X105241541Y-78060295D01*
X105241541Y-78060295D02*
X105241541Y-78155533D01*
X105241541Y-78155533D02*
X105193922Y-78298390D01*
X105193922Y-78298390D02*
X104622494Y-78869819D01*
X104622494Y-78869819D02*
X105241541Y-78869819D01*
X105717732Y-78869819D02*
X105908208Y-78869819D01*
X105908208Y-78869819D02*
X106003446Y-78822200D01*
X106003446Y-78822200D02*
X106051065Y-78774580D01*
X106051065Y-78774580D02*
X106146303Y-78631723D01*
X106146303Y-78631723D02*
X106193922Y-78441247D01*
X106193922Y-78441247D02*
X106193922Y-78060295D01*
X106193922Y-78060295D02*
X106146303Y-77965057D01*
X106146303Y-77965057D02*
X106098684Y-77917438D01*
X106098684Y-77917438D02*
X106003446Y-77869819D01*
X106003446Y-77869819D02*
X105812970Y-77869819D01*
X105812970Y-77869819D02*
X105717732Y-77917438D01*
X105717732Y-77917438D02*
X105670113Y-77965057D01*
X105670113Y-77965057D02*
X105622494Y-78060295D01*
X105622494Y-78060295D02*
X105622494Y-78298390D01*
X105622494Y-78298390D02*
X105670113Y-78393628D01*
X105670113Y-78393628D02*
X105717732Y-78441247D01*
X105717732Y-78441247D02*
X105812970Y-78488866D01*
X105812970Y-78488866D02*
X106003446Y-78488866D01*
X106003446Y-78488866D02*
X106098684Y-78441247D01*
X106098684Y-78441247D02*
X106146303Y-78393628D01*
X106146303Y-78393628D02*
X106193922Y-78298390D01*
X106765351Y-78298390D02*
X106670113Y-78250771D01*
X106670113Y-78250771D02*
X106622494Y-78203152D01*
X106622494Y-78203152D02*
X106574875Y-78107914D01*
X106574875Y-78107914D02*
X106574875Y-78060295D01*
X106574875Y-78060295D02*
X106622494Y-77965057D01*
X106622494Y-77965057D02*
X106670113Y-77917438D01*
X106670113Y-77917438D02*
X106765351Y-77869819D01*
X106765351Y-77869819D02*
X106955827Y-77869819D01*
X106955827Y-77869819D02*
X107051065Y-77917438D01*
X107051065Y-77917438D02*
X107098684Y-77965057D01*
X107098684Y-77965057D02*
X107146303Y-78060295D01*
X107146303Y-78060295D02*
X107146303Y-78107914D01*
X107146303Y-78107914D02*
X107098684Y-78203152D01*
X107098684Y-78203152D02*
X107051065Y-78250771D01*
X107051065Y-78250771D02*
X106955827Y-78298390D01*
X106955827Y-78298390D02*
X106765351Y-78298390D01*
X106765351Y-78298390D02*
X106670113Y-78346009D01*
X106670113Y-78346009D02*
X106622494Y-78393628D01*
X106622494Y-78393628D02*
X106574875Y-78488866D01*
X106574875Y-78488866D02*
X106574875Y-78679342D01*
X106574875Y-78679342D02*
X106622494Y-78774580D01*
X106622494Y-78774580D02*
X106670113Y-78822200D01*
X106670113Y-78822200D02*
X106765351Y-78869819D01*
X106765351Y-78869819D02*
X106955827Y-78869819D01*
X106955827Y-78869819D02*
X107051065Y-78822200D01*
X107051065Y-78822200D02*
X107098684Y-78774580D01*
X107098684Y-78774580D02*
X107146303Y-78679342D01*
X107146303Y-78679342D02*
X107146303Y-78488866D01*
X107146303Y-78488866D02*
X107098684Y-78393628D01*
X107098684Y-78393628D02*
X107051065Y-78346009D01*
X107051065Y-78346009D02*
X106955827Y-78298390D01*
X108336780Y-78869819D02*
X108336780Y-77869819D01*
X109003446Y-77869819D02*
X109193922Y-77869819D01*
X109193922Y-77869819D02*
X109289160Y-77917438D01*
X109289160Y-77917438D02*
X109384398Y-78012676D01*
X109384398Y-78012676D02*
X109432017Y-78203152D01*
X109432017Y-78203152D02*
X109432017Y-78536485D01*
X109432017Y-78536485D02*
X109384398Y-78726961D01*
X109384398Y-78726961D02*
X109289160Y-78822200D01*
X109289160Y-78822200D02*
X109193922Y-78869819D01*
X109193922Y-78869819D02*
X109003446Y-78869819D01*
X109003446Y-78869819D02*
X108908208Y-78822200D01*
X108908208Y-78822200D02*
X108812970Y-78726961D01*
X108812970Y-78726961D02*
X108765351Y-78536485D01*
X108765351Y-78536485D02*
X108765351Y-78203152D01*
X108765351Y-78203152D02*
X108812970Y-78012676D01*
X108812970Y-78012676D02*
X108908208Y-77917438D01*
X108908208Y-77917438D02*
X109003446Y-77869819D01*
X109717732Y-77869819D02*
X110289160Y-77869819D01*
X110003446Y-78869819D02*
X110003446Y-77869819D01*
X111336780Y-78822200D02*
X111479637Y-78869819D01*
X111479637Y-78869819D02*
X111717732Y-78869819D01*
X111717732Y-78869819D02*
X111812970Y-78822200D01*
X111812970Y-78822200D02*
X111860589Y-78774580D01*
X111860589Y-78774580D02*
X111908208Y-78679342D01*
X111908208Y-78679342D02*
X111908208Y-78584104D01*
X111908208Y-78584104D02*
X111860589Y-78488866D01*
X111860589Y-78488866D02*
X111812970Y-78441247D01*
X111812970Y-78441247D02*
X111717732Y-78393628D01*
X111717732Y-78393628D02*
X111527256Y-78346009D01*
X111527256Y-78346009D02*
X111432018Y-78298390D01*
X111432018Y-78298390D02*
X111384399Y-78250771D01*
X111384399Y-78250771D02*
X111336780Y-78155533D01*
X111336780Y-78155533D02*
X111336780Y-78060295D01*
X111336780Y-78060295D02*
X111384399Y-77965057D01*
X111384399Y-77965057D02*
X111432018Y-77917438D01*
X111432018Y-77917438D02*
X111527256Y-77869819D01*
X111527256Y-77869819D02*
X111765351Y-77869819D01*
X111765351Y-77869819D02*
X111908208Y-77917438D01*
X112336780Y-78869819D02*
X112336780Y-77869819D01*
X112336780Y-78346009D02*
X112908208Y-78346009D01*
X112908208Y-78869819D02*
X112908208Y-77869819D01*
X113384399Y-78869819D02*
X113384399Y-77869819D01*
X113860589Y-78346009D02*
X114193922Y-78346009D01*
X114336779Y-78869819D02*
X113860589Y-78869819D01*
X113860589Y-78869819D02*
X113860589Y-77869819D01*
X113860589Y-77869819D02*
X114336779Y-77869819D01*
X115241541Y-78869819D02*
X114765351Y-78869819D01*
X114765351Y-78869819D02*
X114765351Y-77869819D01*
X115574875Y-78869819D02*
X115574875Y-77869819D01*
X115574875Y-77869819D02*
X115812970Y-77869819D01*
X115812970Y-77869819D02*
X115955827Y-77917438D01*
X115955827Y-77917438D02*
X116051065Y-78012676D01*
X116051065Y-78012676D02*
X116098684Y-78107914D01*
X116098684Y-78107914D02*
X116146303Y-78298390D01*
X116146303Y-78298390D02*
X116146303Y-78441247D01*
X116146303Y-78441247D02*
X116098684Y-78631723D01*
X116098684Y-78631723D02*
X116051065Y-78726961D01*
X116051065Y-78726961D02*
X115955827Y-78822200D01*
X115955827Y-78822200D02*
X115812970Y-78869819D01*
X115812970Y-78869819D02*
X115574875Y-78869819D01*
X100908207Y-80479819D02*
X100574874Y-80003628D01*
X100336779Y-80479819D02*
X100336779Y-79479819D01*
X100336779Y-79479819D02*
X100717731Y-79479819D01*
X100717731Y-79479819D02*
X100812969Y-79527438D01*
X100812969Y-79527438D02*
X100860588Y-79575057D01*
X100860588Y-79575057D02*
X100908207Y-79670295D01*
X100908207Y-79670295D02*
X100908207Y-79813152D01*
X100908207Y-79813152D02*
X100860588Y-79908390D01*
X100860588Y-79908390D02*
X100812969Y-79956009D01*
X100812969Y-79956009D02*
X100717731Y-80003628D01*
X100717731Y-80003628D02*
X100336779Y-80003628D01*
X101336779Y-79956009D02*
X101670112Y-79956009D01*
X101812969Y-80479819D02*
X101336779Y-80479819D01*
X101336779Y-80479819D02*
X101336779Y-79479819D01*
X101336779Y-79479819D02*
X101812969Y-79479819D01*
X102098684Y-79479819D02*
X102432017Y-80479819D01*
X102432017Y-80479819D02*
X102765350Y-79479819D01*
X103812970Y-80194104D02*
X104289160Y-80194104D01*
X103717732Y-80479819D02*
X104051065Y-79479819D01*
X104051065Y-79479819D02*
X104384398Y-80479819D01*
X105908208Y-79813152D02*
X105908208Y-80479819D01*
X105670113Y-79432200D02*
X105432018Y-80146485D01*
X105432018Y-80146485D02*
X106051065Y-80146485D01*
X107146303Y-79432200D02*
X106289161Y-80717914D01*
X107955827Y-79479819D02*
X107479637Y-79479819D01*
X107479637Y-79479819D02*
X107432018Y-79956009D01*
X107432018Y-79956009D02*
X107479637Y-79908390D01*
X107479637Y-79908390D02*
X107574875Y-79860771D01*
X107574875Y-79860771D02*
X107812970Y-79860771D01*
X107812970Y-79860771D02*
X107908208Y-79908390D01*
X107908208Y-79908390D02*
X107955827Y-79956009D01*
X107955827Y-79956009D02*
X108003446Y-80051247D01*
X108003446Y-80051247D02*
X108003446Y-80289342D01*
X108003446Y-80289342D02*
X107955827Y-80384580D01*
X107955827Y-80384580D02*
X107908208Y-80432200D01*
X107908208Y-80432200D02*
X107812970Y-80479819D01*
X107812970Y-80479819D02*
X107574875Y-80479819D01*
X107574875Y-80479819D02*
X107479637Y-80432200D01*
X107479637Y-80432200D02*
X107432018Y-80384580D01*
X109146303Y-79432200D02*
X108289161Y-80717914D01*
X109432018Y-79575057D02*
X109479637Y-79527438D01*
X109479637Y-79527438D02*
X109574875Y-79479819D01*
X109574875Y-79479819D02*
X109812970Y-79479819D01*
X109812970Y-79479819D02*
X109908208Y-79527438D01*
X109908208Y-79527438D02*
X109955827Y-79575057D01*
X109955827Y-79575057D02*
X110003446Y-79670295D01*
X110003446Y-79670295D02*
X110003446Y-79765533D01*
X110003446Y-79765533D02*
X109955827Y-79908390D01*
X109955827Y-79908390D02*
X109384399Y-80479819D01*
X109384399Y-80479819D02*
X110003446Y-80479819D01*
X110622494Y-79479819D02*
X110717732Y-79479819D01*
X110717732Y-79479819D02*
X110812970Y-79527438D01*
X110812970Y-79527438D02*
X110860589Y-79575057D01*
X110860589Y-79575057D02*
X110908208Y-79670295D01*
X110908208Y-79670295D02*
X110955827Y-79860771D01*
X110955827Y-79860771D02*
X110955827Y-80098866D01*
X110955827Y-80098866D02*
X110908208Y-80289342D01*
X110908208Y-80289342D02*
X110860589Y-80384580D01*
X110860589Y-80384580D02*
X110812970Y-80432200D01*
X110812970Y-80432200D02*
X110717732Y-80479819D01*
X110717732Y-80479819D02*
X110622494Y-80479819D01*
X110622494Y-80479819D02*
X110527256Y-80432200D01*
X110527256Y-80432200D02*
X110479637Y-80384580D01*
X110479637Y-80384580D02*
X110432018Y-80289342D01*
X110432018Y-80289342D02*
X110384399Y-80098866D01*
X110384399Y-80098866D02*
X110384399Y-79860771D01*
X110384399Y-79860771D02*
X110432018Y-79670295D01*
X110432018Y-79670295D02*
X110479637Y-79575057D01*
X110479637Y-79575057D02*
X110527256Y-79527438D01*
X110527256Y-79527438D02*
X110622494Y-79479819D01*
X111336780Y-79575057D02*
X111384399Y-79527438D01*
X111384399Y-79527438D02*
X111479637Y-79479819D01*
X111479637Y-79479819D02*
X111717732Y-79479819D01*
X111717732Y-79479819D02*
X111812970Y-79527438D01*
X111812970Y-79527438D02*
X111860589Y-79575057D01*
X111860589Y-79575057D02*
X111908208Y-79670295D01*
X111908208Y-79670295D02*
X111908208Y-79765533D01*
X111908208Y-79765533D02*
X111860589Y-79908390D01*
X111860589Y-79908390D02*
X111289161Y-80479819D01*
X111289161Y-80479819D02*
X111908208Y-80479819D01*
X112765351Y-79813152D02*
X112765351Y-80479819D01*
X112527256Y-79432200D02*
X112289161Y-80146485D01*
X112289161Y-80146485D02*
X112908208Y-80146485D01*
X100908207Y-82089819D02*
X100574874Y-81613628D01*
X100336779Y-82089819D02*
X100336779Y-81089819D01*
X100336779Y-81089819D02*
X100717731Y-81089819D01*
X100717731Y-81089819D02*
X100812969Y-81137438D01*
X100812969Y-81137438D02*
X100860588Y-81185057D01*
X100860588Y-81185057D02*
X100908207Y-81280295D01*
X100908207Y-81280295D02*
X100908207Y-81423152D01*
X100908207Y-81423152D02*
X100860588Y-81518390D01*
X100860588Y-81518390D02*
X100812969Y-81566009D01*
X100812969Y-81566009D02*
X100717731Y-81613628D01*
X100717731Y-81613628D02*
X100336779Y-81613628D01*
X101336779Y-81089819D02*
X101336779Y-81899342D01*
X101336779Y-81899342D02*
X101384398Y-81994580D01*
X101384398Y-81994580D02*
X101432017Y-82042200D01*
X101432017Y-82042200D02*
X101527255Y-82089819D01*
X101527255Y-82089819D02*
X101717731Y-82089819D01*
X101717731Y-82089819D02*
X101812969Y-82042200D01*
X101812969Y-82042200D02*
X101860588Y-81994580D01*
X101860588Y-81994580D02*
X101908207Y-81899342D01*
X101908207Y-81899342D02*
X101908207Y-81089819D01*
X102241541Y-81089819D02*
X102812969Y-81089819D01*
X102527255Y-82089819D02*
X102527255Y-81089819D01*
X103003446Y-81089819D02*
X103336779Y-82089819D01*
X103336779Y-82089819D02*
X103670112Y-81089819D01*
X104003446Y-82089819D02*
X104003446Y-81089819D01*
X104479636Y-82089819D02*
X104479636Y-81089819D01*
X105051064Y-82089819D02*
X104622493Y-81518390D01*
X105051064Y-81089819D02*
X104479636Y-81661247D01*
X106241541Y-82089819D02*
X106241541Y-81089819D01*
X106241541Y-81089819D02*
X106622493Y-81089819D01*
X106622493Y-81089819D02*
X106717731Y-81137438D01*
X106717731Y-81137438D02*
X106765350Y-81185057D01*
X106765350Y-81185057D02*
X106812969Y-81280295D01*
X106812969Y-81280295D02*
X106812969Y-81423152D01*
X106812969Y-81423152D02*
X106765350Y-81518390D01*
X106765350Y-81518390D02*
X106717731Y-81566009D01*
X106717731Y-81566009D02*
X106622493Y-81613628D01*
X106622493Y-81613628D02*
X106241541Y-81613628D01*
X107193922Y-81804104D02*
X107670112Y-81804104D01*
X107098684Y-82089819D02*
X107432017Y-81089819D01*
X107432017Y-81089819D02*
X107765350Y-82089819D01*
X107955827Y-81089819D02*
X108527255Y-81089819D01*
X108241541Y-82089819D02*
X108241541Y-81089819D01*
X108860589Y-81566009D02*
X109193922Y-81566009D01*
X109336779Y-82089819D02*
X108860589Y-82089819D01*
X108860589Y-82089819D02*
X108860589Y-81089819D01*
X108860589Y-81089819D02*
X109336779Y-81089819D01*
X110241541Y-82089819D02*
X109765351Y-82089819D01*
X109765351Y-82089819D02*
X109765351Y-81089819D01*
X153874819Y-74933333D02*
X154589104Y-74933333D01*
X154589104Y-74933333D02*
X154731961Y-74980952D01*
X154731961Y-74980952D02*
X154827200Y-75076190D01*
X154827200Y-75076190D02*
X154874819Y-75219047D01*
X154874819Y-75219047D02*
X154874819Y-75314285D01*
X153874819Y-73980952D02*
X153874819Y-74457142D01*
X153874819Y-74457142D02*
X154351009Y-74504761D01*
X154351009Y-74504761D02*
X154303390Y-74457142D01*
X154303390Y-74457142D02*
X154255771Y-74361904D01*
X154255771Y-74361904D02*
X154255771Y-74123809D01*
X154255771Y-74123809D02*
X154303390Y-74028571D01*
X154303390Y-74028571D02*
X154351009Y-73980952D01*
X154351009Y-73980952D02*
X154446247Y-73933333D01*
X154446247Y-73933333D02*
X154684342Y-73933333D01*
X154684342Y-73933333D02*
X154779580Y-73980952D01*
X154779580Y-73980952D02*
X154827200Y-74028571D01*
X154827200Y-74028571D02*
X154874819Y-74123809D01*
X154874819Y-74123809D02*
X154874819Y-74361904D01*
X154874819Y-74361904D02*
X154827200Y-74457142D01*
X154827200Y-74457142D02*
X154779580Y-74504761D01*
X153173333Y-92834819D02*
X152840000Y-92358628D01*
X152601905Y-92834819D02*
X152601905Y-91834819D01*
X152601905Y-91834819D02*
X152982857Y-91834819D01*
X152982857Y-91834819D02*
X153078095Y-91882438D01*
X153078095Y-91882438D02*
X153125714Y-91930057D01*
X153125714Y-91930057D02*
X153173333Y-92025295D01*
X153173333Y-92025295D02*
X153173333Y-92168152D01*
X153173333Y-92168152D02*
X153125714Y-92263390D01*
X153125714Y-92263390D02*
X153078095Y-92311009D01*
X153078095Y-92311009D02*
X152982857Y-92358628D01*
X152982857Y-92358628D02*
X152601905Y-92358628D01*
X154030476Y-91834819D02*
X153840000Y-91834819D01*
X153840000Y-91834819D02*
X153744762Y-91882438D01*
X153744762Y-91882438D02*
X153697143Y-91930057D01*
X153697143Y-91930057D02*
X153601905Y-92072914D01*
X153601905Y-92072914D02*
X153554286Y-92263390D01*
X153554286Y-92263390D02*
X153554286Y-92644342D01*
X153554286Y-92644342D02*
X153601905Y-92739580D01*
X153601905Y-92739580D02*
X153649524Y-92787200D01*
X153649524Y-92787200D02*
X153744762Y-92834819D01*
X153744762Y-92834819D02*
X153935238Y-92834819D01*
X153935238Y-92834819D02*
X154030476Y-92787200D01*
X154030476Y-92787200D02*
X154078095Y-92739580D01*
X154078095Y-92739580D02*
X154125714Y-92644342D01*
X154125714Y-92644342D02*
X154125714Y-92406247D01*
X154125714Y-92406247D02*
X154078095Y-92311009D01*
X154078095Y-92311009D02*
X154030476Y-92263390D01*
X154030476Y-92263390D02*
X153935238Y-92215771D01*
X153935238Y-92215771D02*
X153744762Y-92215771D01*
X153744762Y-92215771D02*
X153649524Y-92263390D01*
X153649524Y-92263390D02*
X153601905Y-92311009D01*
X153601905Y-92311009D02*
X153554286Y-92406247D01*
X155713333Y-87754819D02*
X155380000Y-87278628D01*
X155141905Y-87754819D02*
X155141905Y-86754819D01*
X155141905Y-86754819D02*
X155522857Y-86754819D01*
X155522857Y-86754819D02*
X155618095Y-86802438D01*
X155618095Y-86802438D02*
X155665714Y-86850057D01*
X155665714Y-86850057D02*
X155713333Y-86945295D01*
X155713333Y-86945295D02*
X155713333Y-87088152D01*
X155713333Y-87088152D02*
X155665714Y-87183390D01*
X155665714Y-87183390D02*
X155618095Y-87231009D01*
X155618095Y-87231009D02*
X155522857Y-87278628D01*
X155522857Y-87278628D02*
X155141905Y-87278628D01*
X156618095Y-86754819D02*
X156141905Y-86754819D01*
X156141905Y-86754819D02*
X156094286Y-87231009D01*
X156094286Y-87231009D02*
X156141905Y-87183390D01*
X156141905Y-87183390D02*
X156237143Y-87135771D01*
X156237143Y-87135771D02*
X156475238Y-87135771D01*
X156475238Y-87135771D02*
X156570476Y-87183390D01*
X156570476Y-87183390D02*
X156618095Y-87231009D01*
X156618095Y-87231009D02*
X156665714Y-87326247D01*
X156665714Y-87326247D02*
X156665714Y-87564342D01*
X156665714Y-87564342D02*
X156618095Y-87659580D01*
X156618095Y-87659580D02*
X156570476Y-87707200D01*
X156570476Y-87707200D02*
X156475238Y-87754819D01*
X156475238Y-87754819D02*
X156237143Y-87754819D01*
X156237143Y-87754819D02*
X156141905Y-87707200D01*
X156141905Y-87707200D02*
X156094286Y-87659580D01*
X119674405Y-55197319D02*
X119674405Y-54197319D01*
X120245833Y-55197319D02*
X119817262Y-54625890D01*
X120245833Y-54197319D02*
X119674405Y-54768747D01*
X121198214Y-55197319D02*
X120626786Y-55197319D01*
X120912500Y-55197319D02*
X120912500Y-54197319D01*
X120912500Y-54197319D02*
X120817262Y-54340176D01*
X120817262Y-54340176D02*
X120722024Y-54435414D01*
X120722024Y-54435414D02*
X120626786Y-54483033D01*
X121394819Y-80013333D02*
X122109104Y-80013333D01*
X122109104Y-80013333D02*
X122251961Y-80060952D01*
X122251961Y-80060952D02*
X122347200Y-80156190D01*
X122347200Y-80156190D02*
X122394819Y-80299047D01*
X122394819Y-80299047D02*
X122394819Y-80394285D01*
X121823390Y-79394285D02*
X121775771Y-79489523D01*
X121775771Y-79489523D02*
X121728152Y-79537142D01*
X121728152Y-79537142D02*
X121632914Y-79584761D01*
X121632914Y-79584761D02*
X121585295Y-79584761D01*
X121585295Y-79584761D02*
X121490057Y-79537142D01*
X121490057Y-79537142D02*
X121442438Y-79489523D01*
X121442438Y-79489523D02*
X121394819Y-79394285D01*
X121394819Y-79394285D02*
X121394819Y-79203809D01*
X121394819Y-79203809D02*
X121442438Y-79108571D01*
X121442438Y-79108571D02*
X121490057Y-79060952D01*
X121490057Y-79060952D02*
X121585295Y-79013333D01*
X121585295Y-79013333D02*
X121632914Y-79013333D01*
X121632914Y-79013333D02*
X121728152Y-79060952D01*
X121728152Y-79060952D02*
X121775771Y-79108571D01*
X121775771Y-79108571D02*
X121823390Y-79203809D01*
X121823390Y-79203809D02*
X121823390Y-79394285D01*
X121823390Y-79394285D02*
X121871009Y-79489523D01*
X121871009Y-79489523D02*
X121918628Y-79537142D01*
X121918628Y-79537142D02*
X122013866Y-79584761D01*
X122013866Y-79584761D02*
X122204342Y-79584761D01*
X122204342Y-79584761D02*
X122299580Y-79537142D01*
X122299580Y-79537142D02*
X122347200Y-79489523D01*
X122347200Y-79489523D02*
X122394819Y-79394285D01*
X122394819Y-79394285D02*
X122394819Y-79203809D01*
X122394819Y-79203809D02*
X122347200Y-79108571D01*
X122347200Y-79108571D02*
X122299580Y-79060952D01*
X122299580Y-79060952D02*
X122204342Y-79013333D01*
X122204342Y-79013333D02*
X122013866Y-79013333D01*
X122013866Y-79013333D02*
X121918628Y-79060952D01*
X121918628Y-79060952D02*
X121871009Y-79108571D01*
X121871009Y-79108571D02*
X121823390Y-79203809D01*
X119986666Y-69184819D02*
X119986666Y-69899104D01*
X119986666Y-69899104D02*
X119939047Y-70041961D01*
X119939047Y-70041961D02*
X119843809Y-70137200D01*
X119843809Y-70137200D02*
X119700952Y-70184819D01*
X119700952Y-70184819D02*
X119605714Y-70184819D01*
X120367619Y-69184819D02*
X121034285Y-69184819D01*
X121034285Y-69184819D02*
X120605714Y-70184819D01*
X152794819Y-82553333D02*
X153509104Y-82553333D01*
X153509104Y-82553333D02*
X153651961Y-82600952D01*
X153651961Y-82600952D02*
X153747200Y-82696190D01*
X153747200Y-82696190D02*
X153794819Y-82839047D01*
X153794819Y-82839047D02*
X153794819Y-82934285D01*
X152794819Y-81648571D02*
X152794819Y-81839047D01*
X152794819Y-81839047D02*
X152842438Y-81934285D01*
X152842438Y-81934285D02*
X152890057Y-81981904D01*
X152890057Y-81981904D02*
X153032914Y-82077142D01*
X153032914Y-82077142D02*
X153223390Y-82124761D01*
X153223390Y-82124761D02*
X153604342Y-82124761D01*
X153604342Y-82124761D02*
X153699580Y-82077142D01*
X153699580Y-82077142D02*
X153747200Y-82029523D01*
X153747200Y-82029523D02*
X153794819Y-81934285D01*
X153794819Y-81934285D02*
X153794819Y-81743809D01*
X153794819Y-81743809D02*
X153747200Y-81648571D01*
X153747200Y-81648571D02*
X153699580Y-81600952D01*
X153699580Y-81600952D02*
X153604342Y-81553333D01*
X153604342Y-81553333D02*
X153366247Y-81553333D01*
X153366247Y-81553333D02*
X153271009Y-81600952D01*
X153271009Y-81600952D02*
X153223390Y-81648571D01*
X153223390Y-81648571D02*
X153175771Y-81743809D01*
X153175771Y-81743809D02*
X153175771Y-81934285D01*
X153175771Y-81934285D02*
X153223390Y-82029523D01*
X153223390Y-82029523D02*
X153271009Y-82077142D01*
X153271009Y-82077142D02*
X153366247Y-82124761D01*
X140473333Y-57274819D02*
X140140000Y-56798628D01*
X139901905Y-57274819D02*
X139901905Y-56274819D01*
X139901905Y-56274819D02*
X140282857Y-56274819D01*
X140282857Y-56274819D02*
X140378095Y-56322438D01*
X140378095Y-56322438D02*
X140425714Y-56370057D01*
X140425714Y-56370057D02*
X140473333Y-56465295D01*
X140473333Y-56465295D02*
X140473333Y-56608152D01*
X140473333Y-56608152D02*
X140425714Y-56703390D01*
X140425714Y-56703390D02*
X140378095Y-56751009D01*
X140378095Y-56751009D02*
X140282857Y-56798628D01*
X140282857Y-56798628D02*
X139901905Y-56798628D01*
X140806667Y-56274819D02*
X141425714Y-56274819D01*
X141425714Y-56274819D02*
X141092381Y-56655771D01*
X141092381Y-56655771D02*
X141235238Y-56655771D01*
X141235238Y-56655771D02*
X141330476Y-56703390D01*
X141330476Y-56703390D02*
X141378095Y-56751009D01*
X141378095Y-56751009D02*
X141425714Y-56846247D01*
X141425714Y-56846247D02*
X141425714Y-57084342D01*
X141425714Y-57084342D02*
X141378095Y-57179580D01*
X141378095Y-57179580D02*
X141330476Y-57227200D01*
X141330476Y-57227200D02*
X141235238Y-57274819D01*
X141235238Y-57274819D02*
X140949524Y-57274819D01*
X140949524Y-57274819D02*
X140854286Y-57227200D01*
X140854286Y-57227200D02*
X140806667Y-57179580D01*
X140473333Y-72514819D02*
X140140000Y-72038628D01*
X139901905Y-72514819D02*
X139901905Y-71514819D01*
X139901905Y-71514819D02*
X140282857Y-71514819D01*
X140282857Y-71514819D02*
X140378095Y-71562438D01*
X140378095Y-71562438D02*
X140425714Y-71610057D01*
X140425714Y-71610057D02*
X140473333Y-71705295D01*
X140473333Y-71705295D02*
X140473333Y-71848152D01*
X140473333Y-71848152D02*
X140425714Y-71943390D01*
X140425714Y-71943390D02*
X140378095Y-71991009D01*
X140378095Y-71991009D02*
X140282857Y-72038628D01*
X140282857Y-72038628D02*
X139901905Y-72038628D01*
X140854286Y-71610057D02*
X140901905Y-71562438D01*
X140901905Y-71562438D02*
X140997143Y-71514819D01*
X140997143Y-71514819D02*
X141235238Y-71514819D01*
X141235238Y-71514819D02*
X141330476Y-71562438D01*
X141330476Y-71562438D02*
X141378095Y-71610057D01*
X141378095Y-71610057D02*
X141425714Y-71705295D01*
X141425714Y-71705295D02*
X141425714Y-71800533D01*
X141425714Y-71800533D02*
X141378095Y-71943390D01*
X141378095Y-71943390D02*
X140806667Y-72514819D01*
X140806667Y-72514819D02*
X141425714Y-72514819D01*
X127733333Y-93909580D02*
X127685714Y-93957200D01*
X127685714Y-93957200D02*
X127542857Y-94004819D01*
X127542857Y-94004819D02*
X127447619Y-94004819D01*
X127447619Y-94004819D02*
X127304762Y-93957200D01*
X127304762Y-93957200D02*
X127209524Y-93861961D01*
X127209524Y-93861961D02*
X127161905Y-93766723D01*
X127161905Y-93766723D02*
X127114286Y-93576247D01*
X127114286Y-93576247D02*
X127114286Y-93433390D01*
X127114286Y-93433390D02*
X127161905Y-93242914D01*
X127161905Y-93242914D02*
X127209524Y-93147676D01*
X127209524Y-93147676D02*
X127304762Y-93052438D01*
X127304762Y-93052438D02*
X127447619Y-93004819D01*
X127447619Y-93004819D02*
X127542857Y-93004819D01*
X127542857Y-93004819D02*
X127685714Y-93052438D01*
X127685714Y-93052438D02*
X127733333Y-93100057D01*
X128114286Y-93100057D02*
X128161905Y-93052438D01*
X128161905Y-93052438D02*
X128257143Y-93004819D01*
X128257143Y-93004819D02*
X128495238Y-93004819D01*
X128495238Y-93004819D02*
X128590476Y-93052438D01*
X128590476Y-93052438D02*
X128638095Y-93100057D01*
X128638095Y-93100057D02*
X128685714Y-93195295D01*
X128685714Y-93195295D02*
X128685714Y-93290533D01*
X128685714Y-93290533D02*
X128638095Y-93433390D01*
X128638095Y-93433390D02*
X128066667Y-94004819D01*
X128066667Y-94004819D02*
X128685714Y-94004819D01*
X140473333Y-67434819D02*
X140140000Y-66958628D01*
X139901905Y-67434819D02*
X139901905Y-66434819D01*
X139901905Y-66434819D02*
X140282857Y-66434819D01*
X140282857Y-66434819D02*
X140378095Y-66482438D01*
X140378095Y-66482438D02*
X140425714Y-66530057D01*
X140425714Y-66530057D02*
X140473333Y-66625295D01*
X140473333Y-66625295D02*
X140473333Y-66768152D01*
X140473333Y-66768152D02*
X140425714Y-66863390D01*
X140425714Y-66863390D02*
X140378095Y-66911009D01*
X140378095Y-66911009D02*
X140282857Y-66958628D01*
X140282857Y-66958628D02*
X139901905Y-66958628D01*
X141425714Y-67434819D02*
X140854286Y-67434819D01*
X141140000Y-67434819D02*
X141140000Y-66434819D01*
X141140000Y-66434819D02*
X141044762Y-66577676D01*
X141044762Y-66577676D02*
X140949524Y-66672914D01*
X140949524Y-66672914D02*
X140854286Y-66720533D01*
X140473333Y-62354819D02*
X140140000Y-61878628D01*
X139901905Y-62354819D02*
X139901905Y-61354819D01*
X139901905Y-61354819D02*
X140282857Y-61354819D01*
X140282857Y-61354819D02*
X140378095Y-61402438D01*
X140378095Y-61402438D02*
X140425714Y-61450057D01*
X140425714Y-61450057D02*
X140473333Y-61545295D01*
X140473333Y-61545295D02*
X140473333Y-61688152D01*
X140473333Y-61688152D02*
X140425714Y-61783390D01*
X140425714Y-61783390D02*
X140378095Y-61831009D01*
X140378095Y-61831009D02*
X140282857Y-61878628D01*
X140282857Y-61878628D02*
X139901905Y-61878628D01*
X141330476Y-61688152D02*
X141330476Y-62354819D01*
X141092381Y-61307200D02*
X140854286Y-62021485D01*
X140854286Y-62021485D02*
X141473333Y-62021485D01*
X179729819Y-60816904D02*
X180539342Y-60816904D01*
X180539342Y-60816904D02*
X180634580Y-60769285D01*
X180634580Y-60769285D02*
X180682200Y-60721666D01*
X180682200Y-60721666D02*
X180729819Y-60626428D01*
X180729819Y-60626428D02*
X180729819Y-60435952D01*
X180729819Y-60435952D02*
X180682200Y-60340714D01*
X180682200Y-60340714D02*
X180634580Y-60293095D01*
X180634580Y-60293095D02*
X180539342Y-60245476D01*
X180539342Y-60245476D02*
X179729819Y-60245476D01*
X180729819Y-59245476D02*
X180729819Y-59816904D01*
X180729819Y-59531190D02*
X179729819Y-59531190D01*
X179729819Y-59531190D02*
X179872676Y-59626428D01*
X179872676Y-59626428D02*
X179967914Y-59721666D01*
X179967914Y-59721666D02*
X180015533Y-59816904D01*
X140393333Y-95279580D02*
X140345714Y-95327200D01*
X140345714Y-95327200D02*
X140202857Y-95374819D01*
X140202857Y-95374819D02*
X140107619Y-95374819D01*
X140107619Y-95374819D02*
X139964762Y-95327200D01*
X139964762Y-95327200D02*
X139869524Y-95231961D01*
X139869524Y-95231961D02*
X139821905Y-95136723D01*
X139821905Y-95136723D02*
X139774286Y-94946247D01*
X139774286Y-94946247D02*
X139774286Y-94803390D01*
X139774286Y-94803390D02*
X139821905Y-94612914D01*
X139821905Y-94612914D02*
X139869524Y-94517676D01*
X139869524Y-94517676D02*
X139964762Y-94422438D01*
X139964762Y-94422438D02*
X140107619Y-94374819D01*
X140107619Y-94374819D02*
X140202857Y-94374819D01*
X140202857Y-94374819D02*
X140345714Y-94422438D01*
X140345714Y-94422438D02*
X140393333Y-94470057D01*
X141345714Y-95374819D02*
X140774286Y-95374819D01*
X141060000Y-95374819D02*
X141060000Y-94374819D01*
X141060000Y-94374819D02*
X140964762Y-94517676D01*
X140964762Y-94517676D02*
X140869524Y-94612914D01*
X140869524Y-94612914D02*
X140774286Y-94660533D01*
D11*
%TO.C,J5*%
X155420000Y-71600000D02*
X158420000Y-71600000D01*
X155920000Y-72050000D02*
X166970000Y-72050000D01*
X155420000Y-74600000D02*
X155420000Y-71600000D01*
X166970000Y-77900000D02*
X166970000Y-72050000D01*
X164320000Y-77900000D02*
X166970000Y-77900000D01*
X163420000Y-77900000D02*
X164020000Y-77900000D01*
X159670000Y-77900000D02*
X163170000Y-77900000D01*
X158820000Y-77900000D02*
X159420000Y-77900000D01*
X155920000Y-77900000D02*
X155920000Y-72050000D01*
X155920000Y-77900000D02*
X158570000Y-77900000D01*
%TO.C,G\u002A\u002A\u002A*%
G36*
X107905496Y-63199147D02*
G01*
X107969210Y-63525095D01*
X108123551Y-63883703D01*
X108278894Y-64117690D01*
X108360029Y-64238645D01*
X108295485Y-64281440D01*
X108159863Y-64286061D01*
X107900206Y-64286061D01*
X107928474Y-64982578D01*
X107951491Y-65354942D01*
X107990201Y-65574713D01*
X108055338Y-65681662D01*
X108125114Y-65711224D01*
X108267990Y-65675496D01*
X108293485Y-65599361D01*
X108370140Y-65389371D01*
X108568528Y-65136162D01*
X108815861Y-64911440D01*
X109255606Y-64911440D01*
X109303712Y-64959546D01*
X109351818Y-64911440D01*
X109303712Y-64863334D01*
X109255606Y-64911440D01*
X108815861Y-64911440D01*
X108841282Y-64888343D01*
X109141035Y-64694521D01*
X109204322Y-64664642D01*
X109516179Y-64563898D01*
X109918165Y-64479884D01*
X110217727Y-64441364D01*
X110843106Y-64387490D01*
X110415084Y-64589284D01*
X109987061Y-64791079D01*
X110591525Y-65065466D01*
X110990864Y-65266492D01*
X111396553Y-65501718D01*
X111644926Y-65666785D01*
X112110122Y-65977432D01*
X112546685Y-66217301D01*
X112913289Y-66365771D01*
X113124311Y-66404867D01*
X113344621Y-66407006D01*
X113117335Y-66581805D01*
X112890048Y-66756605D01*
X113145906Y-66957862D01*
X113528748Y-67175556D01*
X113900350Y-67233359D01*
X114214441Y-67130604D01*
X114409471Y-66908788D01*
X114431523Y-66636473D01*
X114278711Y-66351218D01*
X114254889Y-66324657D01*
X114136829Y-66174590D01*
X114161258Y-66117365D01*
X114199910Y-66114091D01*
X114391357Y-66187808D01*
X114570478Y-66355552D01*
X114650247Y-66529865D01*
X114684735Y-66548060D01*
X114739697Y-66450834D01*
X114794472Y-66355338D01*
X114820722Y-66419612D01*
X114828640Y-66595152D01*
X114795118Y-66923688D01*
X114664532Y-67196764D01*
X114412196Y-67440744D01*
X114013425Y-67681994D01*
X113646499Y-67857723D01*
X113279137Y-68017271D01*
X112982304Y-68135511D01*
X112795772Y-68197186D01*
X112753079Y-68200453D01*
X112812208Y-68146526D01*
X113006870Y-68046786D01*
X113254634Y-67939595D01*
X113796940Y-67719489D01*
X113368927Y-67557018D01*
X113099156Y-67433929D01*
X112766260Y-67253375D01*
X112419690Y-67045931D01*
X112108898Y-66842174D01*
X111883335Y-66672679D01*
X111800269Y-66587128D01*
X111842961Y-66544800D01*
X112018216Y-66556195D01*
X112040975Y-66560521D01*
X112264838Y-66574614D01*
X112334394Y-66510966D01*
X112254551Y-66421039D01*
X112155042Y-66402727D01*
X112002413Y-66360407D01*
X111720587Y-66245267D01*
X111350154Y-66075036D01*
X110943619Y-65873561D01*
X110387720Y-65601601D01*
X109961887Y-65430695D01*
X109634783Y-65357132D01*
X109375068Y-65377201D01*
X109151403Y-65487194D01*
X108974371Y-65640431D01*
X108791099Y-65817213D01*
X108705156Y-65865590D01*
X108679788Y-65795174D01*
X108678333Y-65717855D01*
X108742040Y-65507990D01*
X108899562Y-65266140D01*
X108942917Y-65216924D01*
X109097230Y-65045909D01*
X109122012Y-64990650D01*
X109023175Y-65030220D01*
X108991023Y-65046673D01*
X108740871Y-65243879D01*
X108564731Y-65506762D01*
X108504887Y-65766297D01*
X108513831Y-65825625D01*
X108520120Y-65956185D01*
X108414684Y-66009548D01*
X108236372Y-66017879D01*
X107908636Y-66017879D01*
X107908636Y-66968779D01*
X107912431Y-67409037D01*
X107928072Y-67693193D01*
X107961948Y-67857492D01*
X108020447Y-67938176D01*
X108084323Y-67965622D01*
X108246891Y-68085414D01*
X108434834Y-68335028D01*
X108618943Y-68659767D01*
X108770007Y-69004933D01*
X108858817Y-69315829D01*
X108870758Y-69438277D01*
X108898324Y-69727117D01*
X108965194Y-69958797D01*
X108970355Y-69968901D01*
X109020003Y-70113525D01*
X108935182Y-70154820D01*
X108922249Y-70155000D01*
X108780146Y-70200115D01*
X108782152Y-70313532D01*
X108908708Y-70462357D01*
X109140258Y-70613697D01*
X109216558Y-70649980D01*
X109495395Y-70797534D01*
X109682563Y-70979048D01*
X109841583Y-71261746D01*
X109884917Y-71357315D01*
X110024445Y-71645844D01*
X110149050Y-71857934D01*
X110212602Y-71931757D01*
X110280675Y-72064657D01*
X110311816Y-72307269D01*
X110307665Y-72586928D01*
X110269859Y-72830966D01*
X110200039Y-72966718D01*
X110189132Y-72972457D01*
X110002951Y-72972529D01*
X109726400Y-72901176D01*
X109435075Y-72784355D01*
X109204569Y-72648021D01*
X109177078Y-72624959D01*
X109092759Y-72564132D01*
X109041773Y-72591327D01*
X109013245Y-72738103D01*
X108996304Y-73036020D01*
X108991742Y-73162908D01*
X108966391Y-73509503D01*
X108921699Y-73776462D01*
X108867029Y-73909171D01*
X108863344Y-73911855D01*
X108849982Y-73980940D01*
X108958837Y-74029235D01*
X109104648Y-74119872D01*
X109156323Y-74323236D01*
X109158033Y-74403379D01*
X109122529Y-74623215D01*
X109000676Y-74861870D01*
X108766599Y-75165677D01*
X108670102Y-75277042D01*
X108307073Y-75648080D01*
X107939634Y-75918550D01*
X107483067Y-76148545D01*
X107379470Y-76192537D01*
X107385549Y-76160072D01*
X107507128Y-76033032D01*
X107620000Y-75927831D01*
X107956743Y-75623097D01*
X107499735Y-75924353D01*
X107242823Y-76075146D01*
X107081327Y-76131710D01*
X107042727Y-76105900D01*
X106982897Y-76095982D01*
X106829728Y-76201060D01*
X106705985Y-76312576D01*
X106369243Y-76638960D01*
X106369243Y-76345966D01*
X106377383Y-76104300D01*
X106398780Y-75746325D01*
X106428900Y-75347335D01*
X106430611Y-75326979D01*
X106465619Y-74957168D01*
X106506593Y-74733430D01*
X106573638Y-74609933D01*
X106686858Y-74540848D01*
X106791407Y-74504482D01*
X107090833Y-74407978D01*
X106773784Y-74398156D01*
X106569848Y-74381583D01*
X106494131Y-74311194D01*
X106508913Y-74129896D01*
X106528914Y-74027538D01*
X106583686Y-73697744D01*
X106596681Y-73406969D01*
X106568441Y-73065804D01*
X106536190Y-72828819D01*
X106504337Y-72558032D01*
X106520032Y-72434341D01*
X106593662Y-72416045D01*
X106636205Y-72427182D01*
X106748151Y-72456473D01*
X106697426Y-72411766D01*
X106633826Y-72370363D01*
X106503905Y-72190134D01*
X106465455Y-71978250D01*
X106441593Y-71777601D01*
X106384393Y-71694394D01*
X106293326Y-71616350D01*
X106173839Y-71424285D01*
X106152553Y-71381705D01*
X106028895Y-71129132D01*
X105858436Y-70785708D01*
X105704448Y-70478275D01*
X105550699Y-70130562D01*
X105443284Y-69806940D01*
X105407121Y-69596331D01*
X105371401Y-69375309D01*
X105286856Y-69256598D01*
X105215956Y-69213128D01*
X105286856Y-69200475D01*
X105369821Y-69102760D01*
X105402711Y-68857763D01*
X106424255Y-68857763D01*
X106467425Y-69004136D01*
X106526169Y-69194562D01*
X106511800Y-69291940D01*
X106485564Y-69474053D01*
X106564357Y-69660015D01*
X106705533Y-69760519D01*
X106736521Y-69762556D01*
X106821168Y-69736616D01*
X106783549Y-69708234D01*
X106726143Y-69592784D01*
X106768610Y-69365559D01*
X106893060Y-69066966D01*
X107081605Y-68737411D01*
X107316355Y-68417300D01*
X107395100Y-68326970D01*
X107553615Y-68136929D01*
X107649070Y-67956535D01*
X107700583Y-67724593D01*
X107727274Y-67379909D01*
X107733341Y-67244360D01*
X107745816Y-66893240D01*
X107751117Y-66631058D01*
X107748426Y-66503982D01*
X107746529Y-66498716D01*
X107654701Y-66528725D01*
X107497920Y-66586697D01*
X107332390Y-66708311D01*
X107178456Y-66959668D01*
X107046361Y-67284235D01*
X106888510Y-67691244D01*
X106711425Y-68105437D01*
X106594953Y-68352716D01*
X106460558Y-68655490D01*
X106424255Y-68857763D01*
X105402711Y-68857763D01*
X105405914Y-68833901D01*
X105407121Y-68755147D01*
X105441906Y-68386917D01*
X105560690Y-68037098D01*
X105785120Y-67660890D01*
X106136841Y-67213496D01*
X106171866Y-67172424D01*
X106553508Y-66709094D01*
X106797664Y-66369359D01*
X106908511Y-66146593D01*
X106890225Y-66034168D01*
X106889606Y-66033721D01*
X106819002Y-65898843D01*
X106786996Y-65703102D01*
X106711735Y-65395328D01*
X106498898Y-65151239D01*
X106235019Y-64987995D01*
X106072165Y-64907116D01*
X106032058Y-64906237D01*
X106121018Y-65003410D01*
X106300170Y-65174071D01*
X106531826Y-65439209D01*
X106650004Y-65675407D01*
X106657879Y-65734815D01*
X106649083Y-65861299D01*
X106599216Y-65875753D01*
X106473053Y-65767530D01*
X106347867Y-65641108D01*
X106131860Y-65444129D01*
X105940153Y-65361739D01*
X105677530Y-65359278D01*
X105593958Y-65366673D01*
X105152731Y-65474990D01*
X104655335Y-65708264D01*
X104581053Y-65751808D01*
X104199503Y-65962633D01*
X103796554Y-66156406D01*
X103530985Y-66264411D01*
X103186325Y-66398991D01*
X102988458Y-66503087D01*
X102947132Y-66567309D01*
X103072096Y-66582263D01*
X103218296Y-66565625D01*
X103449026Y-66538884D01*
X103572557Y-66540477D01*
X103579091Y-66546135D01*
X103502233Y-66626351D01*
X103300142Y-66773916D01*
X103015546Y-66962280D01*
X102691170Y-67164893D01*
X102369742Y-67355205D01*
X102093988Y-67506667D01*
X101906635Y-67592727D01*
X101883480Y-67599768D01*
X101606933Y-67669177D01*
X101847368Y-67802240D01*
X102003261Y-67897240D01*
X102039697Y-67938267D01*
X101896949Y-67902325D01*
X101643997Y-67804356D01*
X101341084Y-67671634D01*
X101048453Y-67531432D01*
X100826349Y-67411022D01*
X100743537Y-67351479D01*
X100618478Y-67146866D01*
X100499426Y-66847799D01*
X100420724Y-66550150D01*
X100407151Y-66412423D01*
X100428401Y-66323475D01*
X100507293Y-66388642D01*
X100551469Y-66445169D01*
X100655887Y-66564520D01*
X100690648Y-66528592D01*
X100692727Y-66472608D01*
X100775220Y-66303741D01*
X100971196Y-66165648D01*
X101185605Y-66114091D01*
X101211625Y-66167449D01*
X101107761Y-66298862D01*
X101095718Y-66310263D01*
X100917825Y-66581284D01*
X100912412Y-66870063D01*
X101073728Y-67120836D01*
X101332443Y-67235102D01*
X101664986Y-67216022D01*
X102015834Y-67072710D01*
X102207689Y-66934658D01*
X102371433Y-66779299D01*
X102396379Y-66695129D01*
X102304280Y-66640017D01*
X102158810Y-66538054D01*
X102159419Y-66439753D01*
X102284060Y-66402727D01*
X102524376Y-66340624D01*
X102895376Y-66159389D01*
X103382956Y-65866638D01*
X103838976Y-65563125D01*
X104210025Y-65324833D01*
X104578225Y-65117074D01*
X104875249Y-64977815D01*
X104924007Y-64960223D01*
X105326853Y-64827272D01*
X104909980Y-64602940D01*
X104493106Y-64378608D01*
X105097971Y-64428734D01*
X105806371Y-64549331D01*
X106359483Y-64780428D01*
X106755988Y-65121298D01*
X106951097Y-65451668D01*
X107061662Y-65639537D01*
X107169211Y-65647269D01*
X107178585Y-65640052D01*
X107360826Y-65575606D01*
X107478957Y-65576761D01*
X107667436Y-65553455D01*
X107738792Y-65499138D01*
X107778170Y-65348875D01*
X107802119Y-65085050D01*
X107809771Y-64776274D01*
X107800262Y-64491161D01*
X107772726Y-64298323D01*
X107754425Y-64260133D01*
X107632235Y-64248093D01*
X107446341Y-64297216D01*
X107274703Y-64356661D01*
X107265016Y-64321760D01*
X107374730Y-64195086D01*
X107508049Y-63991493D01*
X107653052Y-63687395D01*
X107727780Y-63492535D01*
X107820243Y-63258255D01*
X107884713Y-63158418D01*
X107905496Y-63199147D01*
G37*
G36*
X109494844Y-69623577D02*
G01*
X109359019Y-69717904D01*
X109351818Y-69722046D01*
X109144655Y-69822800D01*
X109015076Y-69859545D01*
X109016368Y-69820515D01*
X109152193Y-69726187D01*
X109159394Y-69722046D01*
X109366557Y-69621291D01*
X109496136Y-69584546D01*
X109494844Y-69623577D01*
G37*
G36*
X109736667Y-69529621D02*
G01*
X109688561Y-69577727D01*
X109640455Y-69529621D01*
X109688561Y-69481515D01*
X109736667Y-69529621D01*
G37*
G36*
X110186832Y-69331739D02*
G01*
X110121515Y-69385303D01*
X109946119Y-69466717D01*
X109880985Y-69478569D01*
X109863775Y-69438867D01*
X109929091Y-69385303D01*
X110104487Y-69303890D01*
X110169621Y-69292038D01*
X110186832Y-69331739D01*
G37*
G36*
X110410152Y-69240985D02*
G01*
X110362046Y-69289091D01*
X110313940Y-69240985D01*
X110362046Y-69192879D01*
X110410152Y-69240985D01*
G37*
G36*
X104939855Y-69051306D02*
G01*
X105022273Y-69096667D01*
X105099283Y-69172903D01*
X105070379Y-69189932D01*
X104912266Y-69142028D01*
X104829849Y-69096667D01*
X104752838Y-69020431D01*
X104781743Y-69003401D01*
X104939855Y-69051306D01*
G37*
G36*
X111034238Y-68950092D02*
G01*
X110898413Y-69044420D01*
X110891212Y-69048561D01*
X110684049Y-69149315D01*
X110554470Y-69186060D01*
X110555762Y-69147030D01*
X110691587Y-69052702D01*
X110698788Y-69048561D01*
X110905951Y-68947806D01*
X111035530Y-68911061D01*
X111034238Y-68950092D01*
G37*
G36*
X104637424Y-68952349D02*
G01*
X104589318Y-69000455D01*
X104541212Y-68952349D01*
X104589318Y-68904243D01*
X104637424Y-68952349D01*
G37*
G36*
X104266371Y-68762670D02*
G01*
X104348788Y-68808030D01*
X104425798Y-68884266D01*
X104396894Y-68901296D01*
X104238781Y-68853391D01*
X104156364Y-68808030D01*
X104079353Y-68731795D01*
X104108258Y-68714765D01*
X104266371Y-68762670D01*
G37*
G36*
X111707723Y-68661456D02*
G01*
X111571898Y-68755783D01*
X111564697Y-68759924D01*
X111357534Y-68860679D01*
X111227955Y-68897424D01*
X111229247Y-68858393D01*
X111365072Y-68764066D01*
X111372273Y-68759924D01*
X111579436Y-68659170D01*
X111709015Y-68622425D01*
X111707723Y-68661456D01*
G37*
G36*
X103785310Y-68570245D02*
G01*
X103867727Y-68615606D01*
X103944738Y-68691842D01*
X103915833Y-68708872D01*
X103757721Y-68660967D01*
X103675303Y-68615606D01*
X103598293Y-68539370D01*
X103627197Y-68522341D01*
X103785310Y-68570245D01*
G37*
G36*
X111949546Y-68567500D02*
G01*
X111901440Y-68615606D01*
X111853333Y-68567500D01*
X111901440Y-68519394D01*
X111949546Y-68567500D01*
G37*
G36*
X103304249Y-68377821D02*
G01*
X103386667Y-68423182D01*
X103463677Y-68499418D01*
X103434773Y-68516448D01*
X103276660Y-68468543D01*
X103194243Y-68423182D01*
X103117232Y-68346946D01*
X103146136Y-68329916D01*
X103304249Y-68377821D01*
G37*
G36*
X112573632Y-68276607D02*
G01*
X112437807Y-68370935D01*
X112430606Y-68375076D01*
X112223443Y-68475831D01*
X112093864Y-68512575D01*
X112095156Y-68473545D01*
X112230981Y-68379217D01*
X112238182Y-68375076D01*
X112445345Y-68274321D01*
X112574924Y-68237576D01*
X112573632Y-68276607D01*
G37*
G36*
X102823189Y-68185397D02*
G01*
X102905606Y-68230758D01*
X102982617Y-68306993D01*
X102953712Y-68324023D01*
X102795599Y-68276119D01*
X102713182Y-68230758D01*
X102636171Y-68154522D01*
X102665076Y-68137492D01*
X102823189Y-68185397D01*
G37*
G36*
X102342128Y-67992973D02*
G01*
X102424546Y-68038334D01*
X102501556Y-68114569D01*
X102472652Y-68131599D01*
X102314539Y-68083694D01*
X102232121Y-68038334D01*
X102155111Y-67962098D01*
X102184015Y-67945068D01*
X102342128Y-67992973D01*
G37*
G36*
X101558636Y-63756894D02*
G01*
X101510530Y-63805000D01*
X101462424Y-63756894D01*
X101510530Y-63708788D01*
X101558636Y-63756894D01*
G37*
G36*
X102905606Y-63179621D02*
G01*
X102857500Y-63227727D01*
X102809394Y-63179621D01*
X102857500Y-63131515D01*
X102905606Y-63179621D01*
G37*
G36*
X104637424Y-63083409D02*
G01*
X104589318Y-63131515D01*
X104541212Y-63083409D01*
X104589318Y-63035303D01*
X104637424Y-63083409D01*
G37*
G36*
X112494748Y-63067374D02*
G01*
X112481541Y-63124572D01*
X112430606Y-63131515D01*
X112351413Y-63096313D01*
X112366465Y-63067374D01*
X112480646Y-63055859D01*
X112494748Y-63067374D01*
G37*
G36*
X105984394Y-62987197D02*
G01*
X105936288Y-63035303D01*
X105888182Y-62987197D01*
X105936288Y-62939091D01*
X105984394Y-62987197D01*
G37*
G36*
X101815202Y-62778738D02*
G01*
X101801995Y-62835936D01*
X101751061Y-62842879D01*
X101671867Y-62807676D01*
X101686919Y-62778738D01*
X101801101Y-62767223D01*
X101815202Y-62778738D01*
G37*
G36*
X104445000Y-62794773D02*
G01*
X104396894Y-62842879D01*
X104348788Y-62794773D01*
X104396894Y-62746667D01*
X104445000Y-62794773D01*
G37*
G36*
X102682694Y-62536203D02*
G01*
X102694164Y-62686571D01*
X102675098Y-62720609D01*
X102631368Y-62691915D01*
X102624565Y-62594331D01*
X102648062Y-62491669D01*
X102682694Y-62536203D01*
G37*
G36*
X108966970Y-62698561D02*
G01*
X108918864Y-62746667D01*
X108870758Y-62698561D01*
X108918864Y-62650455D01*
X108966970Y-62698561D01*
G37*
G36*
X113456869Y-62586313D02*
G01*
X113468384Y-62700495D01*
X113456869Y-62714596D01*
X113399671Y-62701389D01*
X113392727Y-62650455D01*
X113427930Y-62571261D01*
X113456869Y-62586313D01*
G37*
G36*
X101270000Y-62602349D02*
G01*
X101221894Y-62650455D01*
X101173788Y-62602349D01*
X101221894Y-62554243D01*
X101270000Y-62602349D01*
G37*
G36*
X103162172Y-62586313D02*
G01*
X103148965Y-62643511D01*
X103098030Y-62650455D01*
X103018837Y-62615252D01*
X103033889Y-62586313D01*
X103148070Y-62574799D01*
X103162172Y-62586313D01*
G37*
G36*
X110202862Y-62496949D02*
G01*
X110306150Y-62593824D01*
X110284962Y-62649518D01*
X110271512Y-62650455D01*
X110190134Y-62582117D01*
X110160434Y-62539377D01*
X110149094Y-62473540D01*
X110202862Y-62496949D01*
G37*
G36*
X113970000Y-62602349D02*
G01*
X113921894Y-62650455D01*
X113873788Y-62602349D01*
X113921894Y-62554243D01*
X113970000Y-62602349D01*
G37*
G36*
X101462424Y-62506137D02*
G01*
X101414318Y-62554243D01*
X101366212Y-62506137D01*
X101414318Y-62458030D01*
X101462424Y-62506137D01*
G37*
G36*
X101654849Y-62409924D02*
G01*
X101606743Y-62458030D01*
X101558636Y-62409924D01*
X101606743Y-62361818D01*
X101654849Y-62409924D01*
G37*
G36*
X107427576Y-62409924D02*
G01*
X107379470Y-62458030D01*
X107331364Y-62409924D01*
X107379470Y-62361818D01*
X107427576Y-62409924D01*
G37*
G36*
X110666717Y-62393889D02*
G01*
X110653510Y-62451087D01*
X110602576Y-62458030D01*
X110523382Y-62422828D01*
X110538434Y-62393889D01*
X110652616Y-62382374D01*
X110666717Y-62393889D01*
G37*
G36*
X111372273Y-62409924D02*
G01*
X111324167Y-62458030D01*
X111276061Y-62409924D01*
X111324167Y-62361818D01*
X111372273Y-62409924D01*
G37*
G36*
X112108897Y-62324549D02*
G01*
X112093864Y-62361818D01*
X112007407Y-62453603D01*
X111991973Y-62458030D01*
X111950649Y-62383592D01*
X111949546Y-62361818D01*
X112023509Y-62269303D01*
X112051436Y-62265606D01*
X112108897Y-62324549D01*
G37*
G36*
X101847273Y-62313712D02*
G01*
X101799167Y-62361818D01*
X101751061Y-62313712D01*
X101799167Y-62265606D01*
X101847273Y-62313712D01*
G37*
G36*
X102905606Y-62313712D02*
G01*
X102857500Y-62361818D01*
X102809394Y-62313712D01*
X102857500Y-62265606D01*
X102905606Y-62313712D01*
G37*
G36*
X105454546Y-62266708D02*
G01*
X105351641Y-62346465D01*
X105241363Y-62359849D01*
X105214697Y-62324006D01*
X105290166Y-62262214D01*
X105364012Y-62228896D01*
X105463330Y-62222172D01*
X105454546Y-62266708D01*
G37*
G36*
X112218091Y-61882413D02*
G01*
X112245892Y-61916813D01*
X112369530Y-62123018D01*
X112400638Y-62281825D01*
X112397806Y-62290583D01*
X112355012Y-62330518D01*
X112341990Y-62253334D01*
X112266077Y-62062012D01*
X112190076Y-61976970D01*
X112068767Y-61831489D01*
X112045758Y-61759790D01*
X112095534Y-61758959D01*
X112218091Y-61882413D01*
G37*
G36*
X104348788Y-62217500D02*
G01*
X104300682Y-62265606D01*
X104252576Y-62217500D01*
X104300682Y-62169394D01*
X104348788Y-62217500D01*
G37*
G36*
X110377659Y-61952917D02*
G01*
X110390366Y-62149896D01*
X110377659Y-62193447D01*
X110342542Y-62205534D01*
X110329131Y-62073182D01*
X110344251Y-61936596D01*
X110377659Y-61952917D01*
G37*
G36*
X101720572Y-61958930D02*
G01*
X101732042Y-62109298D01*
X101712977Y-62143337D01*
X101669247Y-62114643D01*
X101662444Y-62017058D01*
X101685941Y-61914397D01*
X101720572Y-61958930D01*
G37*
G36*
X107812424Y-62121288D02*
G01*
X107764318Y-62169394D01*
X107716212Y-62121288D01*
X107764318Y-62073182D01*
X107812424Y-62121288D01*
G37*
G36*
X102229325Y-61953973D02*
G01*
X102232121Y-61976970D01*
X102158906Y-62070386D01*
X102135909Y-62073182D01*
X102042493Y-61999967D01*
X102039697Y-61976970D01*
X102112912Y-61883554D01*
X102135909Y-61880758D01*
X102229325Y-61953973D01*
G37*
G36*
X103579091Y-62025076D02*
G01*
X103530985Y-62073182D01*
X103482879Y-62025076D01*
X103530985Y-61976970D01*
X103579091Y-62025076D01*
G37*
G36*
X104348788Y-62025076D02*
G01*
X104300682Y-62073182D01*
X104252576Y-62025076D01*
X104300682Y-61976970D01*
X104348788Y-62025076D01*
G37*
G36*
X106465455Y-62025076D02*
G01*
X106417349Y-62073182D01*
X106369243Y-62025076D01*
X106417349Y-61976970D01*
X106465455Y-62025076D01*
G37*
G36*
X114066212Y-62025076D02*
G01*
X114018106Y-62073182D01*
X113970000Y-62025076D01*
X114018106Y-61976970D01*
X114066212Y-62025076D01*
G37*
G36*
X105278838Y-61816616D02*
G01*
X105290353Y-61930798D01*
X105278838Y-61944899D01*
X105221640Y-61931692D01*
X105214697Y-61880758D01*
X105249900Y-61801564D01*
X105278838Y-61816616D01*
G37*
G36*
X109399924Y-61845965D02*
G01*
X109526517Y-61914255D01*
X109544243Y-61939157D01*
X109465677Y-61972791D01*
X109399924Y-61976970D01*
X109271864Y-61926619D01*
X109255606Y-61883777D01*
X109326130Y-61830840D01*
X109399924Y-61845965D01*
G37*
G36*
X103685342Y-61177861D02*
G01*
X103562082Y-61367644D01*
X103475619Y-61452290D01*
X103359949Y-61586313D01*
X103289811Y-61722232D01*
X103227031Y-61830523D01*
X103204251Y-61784546D01*
X103262734Y-61629534D01*
X103412928Y-61405919D01*
X103497345Y-61303485D01*
X103647039Y-61147819D01*
X103705180Y-61120871D01*
X103685342Y-61177861D01*
G37*
G36*
X103643232Y-61816616D02*
G01*
X103630025Y-61873814D01*
X103579091Y-61880758D01*
X103499898Y-61845555D01*
X103514950Y-61816616D01*
X103629131Y-61805102D01*
X103643232Y-61816616D01*
G37*
G36*
X107331364Y-61832652D02*
G01*
X107283258Y-61880758D01*
X107235152Y-61832652D01*
X107283258Y-61784546D01*
X107331364Y-61832652D01*
G37*
G36*
X111754530Y-61761719D02*
G01*
X111757121Y-61784546D01*
X111678808Y-61868983D01*
X111607125Y-61880758D01*
X111507540Y-61834115D01*
X111516591Y-61784546D01*
X111639594Y-61692004D01*
X111666587Y-61688334D01*
X111754530Y-61761719D01*
G37*
G36*
X113101295Y-61761549D02*
G01*
X113104091Y-61784546D01*
X113030876Y-61877962D01*
X113007879Y-61880758D01*
X112914463Y-61807543D01*
X112911667Y-61784546D01*
X112984882Y-61691129D01*
X113007879Y-61688334D01*
X113101295Y-61761549D01*
G37*
G36*
X101622778Y-61624192D02*
G01*
X101634293Y-61738373D01*
X101622778Y-61752475D01*
X101565580Y-61739268D01*
X101558636Y-61688334D01*
X101593839Y-61609140D01*
X101622778Y-61624192D01*
G37*
G36*
X106437233Y-61617468D02*
G01*
X106417349Y-61688334D01*
X106280044Y-61772048D01*
X106195193Y-61783072D01*
X106087520Y-61767502D01*
X106157457Y-61700990D01*
X106176818Y-61688334D01*
X106353096Y-61603342D01*
X106437233Y-61617468D01*
G37*
G36*
X110410152Y-61736440D02*
G01*
X110362046Y-61784546D01*
X110313940Y-61736440D01*
X110362046Y-61688334D01*
X110410152Y-61736440D01*
G37*
G36*
X114312651Y-61583391D02*
G01*
X114322778Y-61644460D01*
X114301790Y-61775184D01*
X114232132Y-61722093D01*
X114214639Y-61694982D01*
X114219483Y-61573688D01*
X114241032Y-61554896D01*
X114312651Y-61583391D01*
G37*
G36*
X109425451Y-61462157D02*
G01*
X109567490Y-61563607D01*
X109736667Y-61617425D01*
X109977197Y-61662129D01*
X109728649Y-61675231D01*
X109517771Y-61662732D01*
X109415960Y-61624192D01*
X109354158Y-61476547D01*
X109353292Y-61455821D01*
X109384838Y-61411467D01*
X109425451Y-61462157D01*
G37*
G36*
X108341591Y-61461116D02*
G01*
X108468184Y-61529406D01*
X108485909Y-61554309D01*
X108407344Y-61587942D01*
X108341591Y-61592121D01*
X108213531Y-61541770D01*
X108197273Y-61498929D01*
X108267797Y-61445992D01*
X108341591Y-61461116D01*
G37*
G36*
X110217727Y-61544015D02*
G01*
X110169621Y-61592121D01*
X110121515Y-61544015D01*
X110169621Y-61495909D01*
X110217727Y-61544015D01*
G37*
G36*
X111564697Y-61544015D02*
G01*
X111516591Y-61592121D01*
X111468485Y-61544015D01*
X111516591Y-61495909D01*
X111564697Y-61544015D01*
G37*
G36*
X112045758Y-61544015D02*
G01*
X111997652Y-61592121D01*
X111949546Y-61544015D01*
X111997652Y-61495909D01*
X112045758Y-61544015D01*
G37*
G36*
X113681364Y-61544015D02*
G01*
X113633258Y-61592121D01*
X113585152Y-61544015D01*
X113633258Y-61495909D01*
X113681364Y-61544015D01*
G37*
G36*
X101654849Y-61447803D02*
G01*
X101606743Y-61495909D01*
X101558636Y-61447803D01*
X101606743Y-61399697D01*
X101654849Y-61447803D01*
G37*
G36*
X104055501Y-61287315D02*
G01*
X104095157Y-61352144D01*
X104090491Y-61475704D01*
X103996157Y-61482771D01*
X103919942Y-61406345D01*
X103928864Y-61282601D01*
X103952289Y-61262580D01*
X104055501Y-61287315D01*
G37*
G36*
X106313045Y-61337982D02*
G01*
X106179284Y-61462336D01*
X106046260Y-61488314D01*
X105924884Y-61468749D01*
X105984394Y-61427289D01*
X106194292Y-61317460D01*
X106251180Y-61276958D01*
X106334455Y-61237114D01*
X106313045Y-61337982D01*
G37*
G36*
X107453460Y-61432800D02*
G01*
X107456658Y-61464385D01*
X107306042Y-61477285D01*
X107283258Y-61477153D01*
X107134037Y-61463279D01*
X107148281Y-61433996D01*
X107164824Y-61429235D01*
X107374403Y-61415150D01*
X107453460Y-61432800D01*
G37*
G36*
X110410152Y-61447803D02*
G01*
X110362046Y-61495909D01*
X110313940Y-61447803D01*
X110362046Y-61399697D01*
X110410152Y-61447803D01*
G37*
G36*
X111821263Y-61431768D02*
G01*
X111808056Y-61488966D01*
X111757121Y-61495909D01*
X111677928Y-61460707D01*
X111692980Y-61431768D01*
X111807161Y-61420253D01*
X111821263Y-61431768D01*
G37*
G36*
X113456869Y-61431768D02*
G01*
X113443662Y-61488966D01*
X113392727Y-61495909D01*
X113313534Y-61460707D01*
X113328586Y-61431768D01*
X113442767Y-61420253D01*
X113456869Y-61431768D01*
G37*
G36*
X105791970Y-61351591D02*
G01*
X105743864Y-61399697D01*
X105695758Y-61351591D01*
X105743864Y-61303485D01*
X105791970Y-61351591D01*
G37*
G36*
X113007746Y-61275573D02*
G01*
X113174486Y-61339545D01*
X113172349Y-61387363D01*
X113061663Y-61399697D01*
X112901664Y-61346857D01*
X112869106Y-61312458D01*
X112899891Y-61263289D01*
X113007746Y-61275573D01*
G37*
G36*
X102741626Y-61181272D02*
G01*
X102761288Y-61207273D01*
X102756890Y-61296072D01*
X102724538Y-61303485D01*
X102588525Y-61233274D01*
X102568864Y-61207273D01*
X102573262Y-61118473D01*
X102605614Y-61111061D01*
X102741626Y-61181272D01*
G37*
G36*
X105599546Y-61255379D02*
G01*
X105551440Y-61303485D01*
X105503333Y-61255379D01*
X105551440Y-61207273D01*
X105599546Y-61255379D01*
G37*
G36*
X106615059Y-60673562D02*
G01*
X106833282Y-60830871D01*
X106941533Y-60921421D01*
X107148930Y-61075823D01*
X107294254Y-61142076D01*
X107326381Y-61133988D01*
X107439382Y-61026056D01*
X107571894Y-60921548D01*
X107666800Y-60862760D01*
X107630359Y-60926491D01*
X107531070Y-61041813D01*
X107376713Y-61212410D01*
X107292730Y-61300284D01*
X107288408Y-61303485D01*
X107216070Y-61248427D01*
X107043163Y-61108691D01*
X106932960Y-61018254D01*
X106717524Y-60862053D01*
X106563425Y-60789293D01*
X106526190Y-60793759D01*
X106470222Y-60780953D01*
X106465455Y-60742248D01*
X106499387Y-60646632D01*
X106615059Y-60673562D01*
G37*
G36*
X108271853Y-61046570D02*
G01*
X108456563Y-61163913D01*
X108642776Y-61136965D01*
X108694383Y-61113422D01*
X108845983Y-61043306D01*
X108835101Y-61069522D01*
X108732104Y-61153859D01*
X108507736Y-61286455D01*
X108339227Y-61250645D01*
X108206788Y-61087008D01*
X108120284Y-60939381D01*
X108147259Y-60938708D01*
X108271853Y-61046570D01*
G37*
G36*
X109319748Y-61143131D02*
G01*
X109331262Y-61257313D01*
X109319748Y-61271414D01*
X109262550Y-61258207D01*
X109255606Y-61207273D01*
X109290809Y-61128079D01*
X109319748Y-61143131D01*
G37*
G36*
X111104997Y-61077634D02*
G01*
X111126664Y-61102843D01*
X111117063Y-61228634D01*
X111091854Y-61250300D01*
X110966064Y-61240699D01*
X110944397Y-61215490D01*
X110953998Y-61089700D01*
X110979207Y-61068033D01*
X111104997Y-61077634D01*
G37*
G36*
X111372273Y-61255379D02*
G01*
X111324167Y-61303485D01*
X111276061Y-61255379D01*
X111324167Y-61207273D01*
X111372273Y-61255379D01*
G37*
G36*
X101913291Y-60969190D02*
G01*
X101859545Y-61038902D01*
X101719113Y-61188481D01*
X101656428Y-61187830D01*
X101654849Y-61170947D01*
X101720598Y-61090636D01*
X101823220Y-61002576D01*
X101937183Y-60919367D01*
X101913291Y-60969190D01*
G37*
G36*
X104141498Y-61053767D02*
G01*
X104243976Y-61143204D01*
X104252576Y-61164845D01*
X104206916Y-61204389D01*
X104111852Y-61115781D01*
X104099070Y-61096195D01*
X104087730Y-61030358D01*
X104141498Y-61053767D01*
G37*
G36*
X105407121Y-61159167D02*
G01*
X105359015Y-61207273D01*
X105310909Y-61159167D01*
X105359015Y-61111061D01*
X105407121Y-61159167D01*
G37*
G36*
X106754091Y-61159167D02*
G01*
X106705985Y-61207273D01*
X106657879Y-61159167D01*
X106705985Y-61111061D01*
X106754091Y-61159167D01*
G37*
G36*
X101516365Y-60879631D02*
G01*
X101462424Y-60966743D01*
X101348576Y-61086228D01*
X101309345Y-61111061D01*
X101308390Y-61038227D01*
X101331419Y-60966743D01*
X101432359Y-60839275D01*
X101484499Y-60822424D01*
X101516365Y-60879631D01*
G37*
G36*
X106433384Y-60950707D02*
G01*
X106444899Y-61064889D01*
X106433384Y-61078990D01*
X106376186Y-61065783D01*
X106369243Y-61014849D01*
X106404445Y-60935655D01*
X106433384Y-60950707D01*
G37*
G36*
X107908636Y-61062955D02*
G01*
X107860530Y-61111061D01*
X107812424Y-61062955D01*
X107860530Y-61014849D01*
X107908636Y-61062955D01*
G37*
G36*
X112620235Y-60991852D02*
G01*
X112623030Y-61014849D01*
X112549815Y-61108265D01*
X112526818Y-61111061D01*
X112433402Y-61037846D01*
X112430606Y-61014849D01*
X112503821Y-60921432D01*
X112526818Y-60918637D01*
X112620235Y-60991852D01*
G37*
G36*
X109255606Y-60800350D02*
G01*
X109178756Y-60916132D01*
X109111288Y-60953429D01*
X108986044Y-60984681D01*
X108966970Y-60975504D01*
X109030598Y-60895122D01*
X109111288Y-60822424D01*
X109228492Y-60763881D01*
X109255606Y-60800350D01*
G37*
G36*
X110738648Y-60402038D02*
G01*
X110936380Y-60527706D01*
X111142961Y-60687341D01*
X111305581Y-60839243D01*
X111371429Y-60941711D01*
X111366250Y-60955044D01*
X111272384Y-60934941D01*
X111208510Y-60884880D01*
X110855561Y-60575713D01*
X110608386Y-60420285D01*
X110511542Y-60366930D01*
X110593564Y-60352234D01*
X110602576Y-60352036D01*
X110738648Y-60402038D01*
G37*
G36*
X112973580Y-60639342D02*
G01*
X112978341Y-60655884D01*
X112992426Y-60865464D01*
X112974776Y-60944521D01*
X112943191Y-60947719D01*
X112930291Y-60797103D01*
X112930423Y-60774318D01*
X112944297Y-60625098D01*
X112973580Y-60639342D01*
G37*
G36*
X102135909Y-60870530D02*
G01*
X102087803Y-60918637D01*
X102039697Y-60870530D01*
X102087803Y-60822424D01*
X102135909Y-60870530D01*
G37*
G36*
X102888797Y-60354497D02*
G01*
X102890618Y-60627432D01*
X102847696Y-60764947D01*
X102728096Y-60823621D01*
X102612734Y-60843569D01*
X102392399Y-60850491D01*
X102270791Y-60807133D01*
X102270313Y-60806383D01*
X102316850Y-60750894D01*
X102497396Y-60726283D01*
X102509548Y-60726212D01*
X102692530Y-60710048D01*
X102783535Y-60625957D01*
X102825081Y-60420544D01*
X102835159Y-60317311D01*
X102871988Y-59908409D01*
X102888797Y-60354497D01*
G37*
G36*
X105417523Y-60146817D02*
G01*
X105464528Y-60223504D01*
X105460084Y-60279403D01*
X105439994Y-60247557D01*
X105308712Y-60162208D01*
X105115947Y-60162918D01*
X104971907Y-60248859D01*
X104970499Y-60251086D01*
X104837500Y-60362513D01*
X104683555Y-60438327D01*
X104492850Y-60588307D01*
X104417367Y-60745082D01*
X104386186Y-60883380D01*
X104370322Y-60843092D01*
X104361890Y-60708643D01*
X104403389Y-60488346D01*
X104564896Y-60381953D01*
X104781457Y-60269087D01*
X104882976Y-60173908D01*
X105038932Y-60082260D01*
X105246999Y-60075778D01*
X105417523Y-60146817D01*
G37*
G36*
X104768323Y-60696757D02*
G01*
X104827888Y-60829242D01*
X104766280Y-60915293D01*
X104739315Y-60918637D01*
X104608083Y-60849078D01*
X104593427Y-60829073D01*
X104598025Y-60714867D01*
X104699739Y-60665155D01*
X104768323Y-60696757D01*
G37*
G36*
X109802693Y-60788360D02*
G01*
X109784773Y-60822424D01*
X109694120Y-60914307D01*
X109677204Y-60918637D01*
X109670640Y-60856489D01*
X109688561Y-60822424D01*
X109779213Y-60730542D01*
X109796129Y-60726212D01*
X109802693Y-60788360D01*
G37*
G36*
X108101061Y-60774318D02*
G01*
X108052955Y-60822424D01*
X108004849Y-60774318D01*
X108052955Y-60726212D01*
X108101061Y-60774318D01*
G37*
G36*
X110601473Y-60704439D02*
G01*
X110602576Y-60726212D01*
X110528613Y-60818727D01*
X110500686Y-60822424D01*
X110443224Y-60763481D01*
X110458258Y-60726212D01*
X110544715Y-60634427D01*
X110560148Y-60630000D01*
X110601473Y-60704439D01*
G37*
G36*
X112430606Y-60774318D02*
G01*
X112382500Y-60822424D01*
X112334394Y-60774318D01*
X112382500Y-60726212D01*
X112430606Y-60774318D01*
G37*
G36*
X107959288Y-60552369D02*
G01*
X107930416Y-60623939D01*
X107840627Y-60671920D01*
X107728224Y-60701213D01*
X107774337Y-60630733D01*
X107786768Y-60618061D01*
X107912913Y-60542065D01*
X107959288Y-60552369D01*
G37*
G36*
X110121515Y-60678106D02*
G01*
X110073409Y-60726212D01*
X110025303Y-60678106D01*
X110073409Y-60630000D01*
X110121515Y-60678106D01*
G37*
G36*
X103290455Y-60389470D02*
G01*
X103382997Y-60512473D01*
X103386667Y-60539466D01*
X103313282Y-60627409D01*
X103290455Y-60630000D01*
X103206018Y-60551687D01*
X103194243Y-60480004D01*
X103240885Y-60380419D01*
X103290455Y-60389470D01*
G37*
G36*
X105695758Y-60581894D02*
G01*
X105647652Y-60630000D01*
X105599546Y-60581894D01*
X105647652Y-60533788D01*
X105695758Y-60581894D01*
G37*
G36*
X105354287Y-60405356D02*
G01*
X105407121Y-60437576D01*
X105482681Y-60507757D01*
X105387122Y-60531245D01*
X105334962Y-60532315D01*
X105166040Y-60497248D01*
X105118485Y-60437576D01*
X105179052Y-60348050D01*
X105354287Y-60405356D01*
G37*
G36*
X105984394Y-60485682D02*
G01*
X105936288Y-60533788D01*
X105888182Y-60485682D01*
X105936288Y-60437576D01*
X105984394Y-60485682D01*
G37*
G36*
X109375246Y-59710163D02*
G01*
X109483548Y-59745245D01*
X109725305Y-59848912D01*
X109859114Y-59897503D01*
X110048103Y-60035698D01*
X110093783Y-60240952D01*
X110024286Y-60390695D01*
X109851710Y-60524256D01*
X109711354Y-60468725D01*
X109684605Y-60431175D01*
X109666254Y-60293882D01*
X109684158Y-60265590D01*
X109778298Y-60277886D01*
X109832935Y-60341454D01*
X109912447Y-60425799D01*
X109975926Y-60331110D01*
X109980547Y-60319222D01*
X109994788Y-60099477D01*
X109847978Y-59975916D01*
X109702125Y-59956515D01*
X109476303Y-59906602D01*
X109368659Y-59838659D01*
X109235008Y-59769083D01*
X109060781Y-59839475D01*
X108916581Y-59897790D01*
X108870758Y-59867602D01*
X108952577Y-59760588D01*
X109146506Y-59702963D01*
X109375246Y-59710163D01*
G37*
G36*
X110410152Y-60485682D02*
G01*
X110362046Y-60533788D01*
X110313940Y-60485682D01*
X110362046Y-60437576D01*
X110410152Y-60485682D01*
G37*
G36*
X105791970Y-60389470D02*
G01*
X105743864Y-60437576D01*
X105695758Y-60389470D01*
X105743864Y-60341364D01*
X105791970Y-60389470D01*
G37*
G36*
X111946750Y-60318367D02*
G01*
X111949546Y-60341364D01*
X111876331Y-60434780D01*
X111853333Y-60437576D01*
X111759917Y-60364361D01*
X111757121Y-60341364D01*
X111830336Y-60247948D01*
X111853333Y-60245152D01*
X111946750Y-60318367D01*
G37*
G36*
X112879596Y-60277222D02*
G01*
X112891111Y-60391404D01*
X112879596Y-60405505D01*
X112822398Y-60392298D01*
X112815455Y-60341364D01*
X112850657Y-60262170D01*
X112879596Y-60277222D01*
G37*
G36*
X103371801Y-60187858D02*
G01*
X103475089Y-60284734D01*
X103453901Y-60340427D01*
X103440451Y-60341364D01*
X103359073Y-60273026D01*
X103329373Y-60230286D01*
X103318033Y-60164449D01*
X103371801Y-60187858D01*
G37*
G36*
X107427576Y-60293258D02*
G01*
X107379470Y-60341364D01*
X107331364Y-60293258D01*
X107379470Y-60245152D01*
X107427576Y-60293258D01*
G37*
G36*
X103098030Y-60197046D02*
G01*
X103049924Y-60245152D01*
X103001818Y-60197046D01*
X103049924Y-60148940D01*
X103098030Y-60197046D01*
G37*
G36*
X105888182Y-60197046D02*
G01*
X105840076Y-60245152D01*
X105791970Y-60197046D01*
X105840076Y-60148940D01*
X105888182Y-60197046D01*
G37*
G36*
X106172903Y-60122569D02*
G01*
X106176818Y-60148940D01*
X106143992Y-60242650D01*
X106134390Y-60245152D01*
X106052247Y-60177732D01*
X106032500Y-60148940D01*
X106040128Y-60060282D01*
X106074928Y-60052727D01*
X106172903Y-60122569D01*
G37*
G36*
X108684982Y-60104942D02*
G01*
X108769003Y-60183918D01*
X108670010Y-60212509D01*
X108634460Y-60213081D01*
X108537968Y-60170623D01*
X108544896Y-60131335D01*
X108656455Y-60092309D01*
X108684982Y-60104942D01*
G37*
G36*
X109160963Y-60005591D02*
G01*
X109212166Y-60116392D01*
X109139771Y-60224110D01*
X109063182Y-60245152D01*
X108940763Y-60174773D01*
X108909676Y-60134074D01*
X108898336Y-60068237D01*
X108952104Y-60091646D01*
X109050901Y-60094154D01*
X109063182Y-60052727D01*
X109122006Y-59990472D01*
X109160963Y-60005591D01*
G37*
G36*
X107241800Y-60008730D02*
G01*
X107325821Y-60087706D01*
X107226829Y-60116297D01*
X107191278Y-60116869D01*
X107094786Y-60074411D01*
X107101714Y-60035123D01*
X107213274Y-59996097D01*
X107241800Y-60008730D01*
G37*
G36*
X112815455Y-60100834D02*
G01*
X112767349Y-60148940D01*
X112719243Y-60100834D01*
X112767349Y-60052727D01*
X112815455Y-60100834D01*
G37*
G36*
X103739445Y-59892374D02*
G01*
X103750959Y-60006555D01*
X103739445Y-60020657D01*
X103682247Y-60007450D01*
X103675303Y-59956515D01*
X103710506Y-59877322D01*
X103739445Y-59892374D01*
G37*
G36*
X104081512Y-59826877D02*
G01*
X104103179Y-59852086D01*
X104093578Y-59977876D01*
X104068369Y-59999543D01*
X103942579Y-59989942D01*
X103920912Y-59964733D01*
X103930513Y-59838943D01*
X103955722Y-59817276D01*
X104081512Y-59826877D01*
G37*
G36*
X106748107Y-59540305D02*
G01*
X106921047Y-59655834D01*
X107018023Y-59817161D01*
X107014997Y-59895524D01*
X106918899Y-59996978D01*
X106773637Y-60038914D01*
X106668629Y-60003536D01*
X106657879Y-59966590D01*
X106728119Y-59907606D01*
X106802197Y-59921722D01*
X106924717Y-59923108D01*
X106930293Y-59824768D01*
X106817589Y-59680805D01*
X106808347Y-59672983D01*
X106629703Y-59608543D01*
X106477930Y-59661202D01*
X106248811Y-59745816D01*
X106121591Y-59764091D01*
X105932269Y-59833922D01*
X105821322Y-59932462D01*
X105729091Y-60039362D01*
X105739560Y-59990030D01*
X105783993Y-59895668D01*
X105948055Y-59726866D01*
X106150097Y-59644692D01*
X106407931Y-59586257D01*
X106573314Y-59531635D01*
X106748107Y-59540305D01*
G37*
G36*
X107697492Y-59821658D02*
G01*
X107663599Y-59937768D01*
X107551250Y-60027537D01*
X107550645Y-60027740D01*
X107412676Y-59991659D01*
X107373421Y-59946728D01*
X107356997Y-59875653D01*
X107412710Y-59899222D01*
X107511661Y-59904641D01*
X107523788Y-59865981D01*
X107597882Y-59768459D01*
X107628018Y-59764091D01*
X107697492Y-59821658D01*
G37*
G36*
X108328535Y-59535701D02*
G01*
X108519116Y-59661812D01*
X108570271Y-59839875D01*
X108561949Y-59872715D01*
X108446636Y-59980646D01*
X108267140Y-60019676D01*
X108158342Y-59981726D01*
X108126297Y-59879107D01*
X108213649Y-59828117D01*
X108347883Y-59866318D01*
X108361254Y-59876622D01*
X108469391Y-59943406D01*
X108479146Y-59851193D01*
X108471636Y-59809135D01*
X108383094Y-59665967D01*
X108162906Y-59611969D01*
X108122193Y-59610152D01*
X107865442Y-59587344D01*
X107768832Y-59549795D01*
X107842951Y-59513080D01*
X108043458Y-59494331D01*
X108328535Y-59535701D01*
G37*
G36*
X112623030Y-60004621D02*
G01*
X112574924Y-60052727D01*
X112526818Y-60004621D01*
X112574924Y-59956515D01*
X112623030Y-60004621D01*
G37*
G36*
X113093096Y-59853508D02*
G01*
X113161447Y-59949498D01*
X113121011Y-59994164D01*
X112988990Y-59986771D01*
X112956787Y-59951684D01*
X112923687Y-59824725D01*
X113024229Y-59818099D01*
X113093096Y-59853508D01*
G37*
G36*
X111549814Y-59555923D02*
G01*
X111564697Y-59662607D01*
X111598661Y-59781292D01*
X111731235Y-59847842D01*
X112008447Y-59884736D01*
X112021705Y-59885796D01*
X112478712Y-59921831D01*
X111984815Y-59939173D01*
X111691985Y-59941219D01*
X111537569Y-59905962D01*
X111468162Y-59811324D01*
X111444937Y-59715985D01*
X111438340Y-59537204D01*
X111481827Y-59475455D01*
X111549814Y-59555923D01*
G37*
G36*
X103001818Y-59812197D02*
G01*
X102953712Y-59860303D01*
X102905606Y-59812197D01*
X102953712Y-59764091D01*
X103001818Y-59812197D01*
G37*
G36*
X111177257Y-59741264D02*
G01*
X111179849Y-59764091D01*
X111101536Y-59848528D01*
X111029852Y-59860303D01*
X110930267Y-59813660D01*
X110939318Y-59764091D01*
X111062321Y-59671549D01*
X111089315Y-59667879D01*
X111177257Y-59741264D01*
G37*
G36*
X103954342Y-59396991D02*
G01*
X104003770Y-59442824D01*
X103976636Y-59465572D01*
X103800183Y-59620400D01*
X103751083Y-59680576D01*
X103688733Y-59748807D01*
X103709982Y-59647977D01*
X103711314Y-59643826D01*
X103687325Y-59513656D01*
X103531110Y-59472787D01*
X103283407Y-59526191D01*
X103163864Y-59576974D01*
X103020046Y-59642844D01*
X103038306Y-59612151D01*
X103140472Y-59528868D01*
X103356613Y-59431855D01*
X103653193Y-59382389D01*
X103717745Y-59380716D01*
X103954342Y-59396991D01*
G37*
G36*
X107574440Y-59494036D02*
G01*
X107545567Y-59565606D01*
X107455778Y-59613587D01*
X107343375Y-59642880D01*
X107389488Y-59572399D01*
X107401919Y-59559728D01*
X107528065Y-59483732D01*
X107574440Y-59494036D01*
G37*
G36*
X107197121Y-57955193D02*
G01*
X107169399Y-57983805D01*
X107012523Y-58033867D01*
X106715653Y-58152592D01*
X106551245Y-58281012D01*
X106542903Y-58397383D01*
X106581166Y-58431208D01*
X106628438Y-58493073D01*
X106504210Y-58511860D01*
X106302268Y-58592139D01*
X106215574Y-58699026D01*
X106152670Y-58809815D01*
X106068724Y-58834717D01*
X105905146Y-58773731D01*
X105750737Y-58699026D01*
X105337091Y-58535106D01*
X105025696Y-58518418D01*
X104786233Y-58661674D01*
X104588386Y-58977587D01*
X104486478Y-59229116D01*
X104373133Y-59440143D01*
X104245947Y-59549130D01*
X104169498Y-59550926D01*
X104213709Y-59506832D01*
X104315265Y-59358807D01*
X104379990Y-59178398D01*
X104556021Y-58766830D01*
X104833914Y-58514170D01*
X105196396Y-58428214D01*
X105626195Y-58516759D01*
X105738265Y-58565231D01*
X105920048Y-58642978D01*
X106052379Y-58647876D01*
X106194602Y-58559557D01*
X106406057Y-58357653D01*
X106439025Y-58324701D01*
X106748770Y-58063478D01*
X107002216Y-57948187D01*
X107055461Y-57944330D01*
X107197121Y-57955193D01*
G37*
G36*
X104829849Y-59331137D02*
G01*
X104922391Y-59454140D01*
X104926061Y-59481133D01*
X104852676Y-59569075D01*
X104829849Y-59571667D01*
X104745412Y-59493354D01*
X104733636Y-59421671D01*
X104780279Y-59322085D01*
X104829849Y-59331137D01*
G37*
G36*
X110987424Y-59523561D02*
G01*
X110939318Y-59571667D01*
X110891212Y-59523561D01*
X110939318Y-59475455D01*
X110987424Y-59523561D01*
G37*
G36*
X112013687Y-59507525D02*
G01*
X112000480Y-59564723D01*
X111949546Y-59571667D01*
X111870352Y-59536464D01*
X111885404Y-59507525D01*
X111999585Y-59496011D01*
X112013687Y-59507525D01*
G37*
G36*
X110335300Y-59249604D02*
G01*
X110356967Y-59274813D01*
X110347366Y-59400603D01*
X110322157Y-59422270D01*
X110196367Y-59412669D01*
X110174700Y-59387460D01*
X110184301Y-59261670D01*
X110209510Y-59240003D01*
X110335300Y-59249604D01*
G37*
G36*
X111243990Y-59411313D02*
G01*
X111230783Y-59468511D01*
X111179849Y-59475455D01*
X111100655Y-59440252D01*
X111115707Y-59411313D01*
X111229888Y-59399799D01*
X111243990Y-59411313D01*
G37*
G36*
X112238182Y-59427349D02*
G01*
X112190076Y-59475455D01*
X112141970Y-59427349D01*
X112190076Y-59379243D01*
X112238182Y-59427349D01*
G37*
G36*
X102981072Y-59238036D02*
G01*
X102885099Y-59345842D01*
X102799923Y-59379243D01*
X102774781Y-59323972D01*
X102829654Y-59244628D01*
X102947064Y-59147363D01*
X102987400Y-59142015D01*
X102981072Y-59238036D01*
G37*
G36*
X110518036Y-59063864D02*
G01*
X110522571Y-59068328D01*
X110590394Y-59234652D01*
X110582156Y-59296184D01*
X110532584Y-59318519D01*
X110480503Y-59194531D01*
X110458648Y-59046007D01*
X110518036Y-59063864D01*
G37*
G36*
X111265897Y-58994394D02*
G01*
X111418387Y-59208164D01*
X111471763Y-59347437D01*
X111441123Y-59379243D01*
X111381877Y-59304242D01*
X111269924Y-59118701D01*
X111240675Y-59066553D01*
X111067588Y-58753864D01*
X111265897Y-58994394D01*
G37*
G36*
X105695758Y-58946288D02*
G01*
X105788152Y-59061291D01*
X105791970Y-59085991D01*
X105716667Y-59191923D01*
X105563636Y-59227035D01*
X105443443Y-59167751D01*
X105436287Y-59106385D01*
X105488468Y-59129525D01*
X105582975Y-59120139D01*
X105599546Y-59042500D01*
X105644800Y-58938582D01*
X105695758Y-58946288D01*
G37*
G36*
X105022273Y-59138712D02*
G01*
X104974167Y-59186818D01*
X104926061Y-59138712D01*
X104974167Y-59090606D01*
X105022273Y-59138712D01*
G37*
G36*
X104107577Y-58995496D02*
G01*
X104004671Y-59075252D01*
X103894393Y-59088637D01*
X103867727Y-59052794D01*
X103943197Y-58991002D01*
X104017043Y-58957684D01*
X104116360Y-58950960D01*
X104107577Y-58995496D01*
G37*
G36*
X104829849Y-59042500D02*
G01*
X104781743Y-59090606D01*
X104733636Y-59042500D01*
X104781743Y-58994394D01*
X104829849Y-59042500D01*
G37*
G36*
X109527960Y-58950134D02*
G01*
X109544243Y-58994394D01*
X109466315Y-59079752D01*
X109399924Y-59090606D01*
X109271888Y-59038654D01*
X109255606Y-58994394D01*
X109333534Y-58909037D01*
X109399924Y-58898182D01*
X109527960Y-58950134D01*
G37*
G36*
X109341829Y-58198730D02*
G01*
X109622871Y-58489294D01*
X109688561Y-58586950D01*
X109845791Y-58791892D01*
X110009048Y-58860236D01*
X110169621Y-58849162D01*
X110325618Y-58834610D01*
X110327568Y-58858127D01*
X110313940Y-58864209D01*
X110099658Y-58961740D01*
X110007711Y-59007323D01*
X109862724Y-59026841D01*
X109784750Y-58898110D01*
X109695958Y-58742589D01*
X109628293Y-58705758D01*
X109574659Y-58647527D01*
X109587587Y-58617250D01*
X109572652Y-58488115D01*
X109426307Y-58347144D01*
X109204248Y-58227426D01*
X108962171Y-58162050D01*
X108824170Y-58163708D01*
X108635651Y-58192707D01*
X108623510Y-58174417D01*
X108760269Y-58104057D01*
X109044487Y-58065216D01*
X109341829Y-58198730D01*
G37*
G36*
X105407121Y-58946288D02*
G01*
X105359015Y-58994394D01*
X105310909Y-58946288D01*
X105359015Y-58898182D01*
X105407121Y-58946288D01*
G37*
G36*
X106656551Y-58782324D02*
G01*
X106692672Y-58850076D01*
X106690934Y-58977948D01*
X106586847Y-58975474D01*
X106529596Y-58930253D01*
X106467607Y-58797526D01*
X106523255Y-58709716D01*
X106551373Y-58705758D01*
X106656551Y-58782324D01*
G37*
G36*
X108573445Y-58822007D02*
G01*
X108561652Y-58911483D01*
X108508661Y-58983907D01*
X108445784Y-58911095D01*
X108410480Y-58769453D01*
X108428169Y-58731427D01*
X108523282Y-58715628D01*
X108573445Y-58822007D01*
G37*
G36*
X107467812Y-58080797D02*
G01*
X107643835Y-58206573D01*
X107707433Y-58264392D01*
X107893519Y-58430002D01*
X108020292Y-58474345D01*
X108164459Y-58412260D01*
X108235596Y-58366578D01*
X108414846Y-58277696D01*
X108485825Y-58306680D01*
X108485909Y-58309844D01*
X108423632Y-58412060D01*
X108396569Y-58417121D01*
X108264171Y-58478585D01*
X108151175Y-58573176D01*
X108020832Y-58676761D01*
X107925721Y-58630037D01*
X107873360Y-58562714D01*
X107697681Y-58441873D01*
X107505507Y-58456947D01*
X107374403Y-58593476D01*
X107358218Y-58658757D01*
X107360219Y-58762605D01*
X107389184Y-58729811D01*
X107496988Y-58617430D01*
X107596452Y-58655759D01*
X107620000Y-58753864D01*
X107556229Y-58875209D01*
X107418937Y-58885333D01*
X107289152Y-58787649D01*
X107264194Y-58738878D01*
X107287741Y-58549584D01*
X107410139Y-58411895D01*
X107543980Y-58285710D01*
X107529323Y-58216593D01*
X107460518Y-58184085D01*
X107357937Y-58105166D01*
X107366703Y-58061075D01*
X107467812Y-58080797D01*
G37*
G36*
X104156364Y-58753864D02*
G01*
X104108258Y-58801970D01*
X104060152Y-58753864D01*
X104108258Y-58705758D01*
X104156364Y-58753864D01*
G37*
G36*
X105503333Y-58753864D02*
G01*
X105455227Y-58801970D01*
X105407121Y-58753864D01*
X105455227Y-58705758D01*
X105503333Y-58753864D01*
G37*
G36*
X108690006Y-58486591D02*
G01*
X108694540Y-58491056D01*
X108762363Y-58657379D01*
X108754126Y-58718911D01*
X108704554Y-58741246D01*
X108652473Y-58617258D01*
X108630618Y-58468734D01*
X108690006Y-58486591D01*
G37*
G36*
X109402470Y-58628127D02*
G01*
X109373597Y-58699696D01*
X109283809Y-58747678D01*
X109171406Y-58776971D01*
X109217518Y-58706490D01*
X109229950Y-58693819D01*
X109356095Y-58617823D01*
X109402470Y-58628127D01*
G37*
G36*
X110917096Y-58738861D02*
G01*
X110920295Y-58770446D01*
X110769679Y-58783346D01*
X110746894Y-58783213D01*
X110597673Y-58769340D01*
X110611918Y-58740057D01*
X110628460Y-58735296D01*
X110838040Y-58721211D01*
X110917096Y-58738861D01*
G37*
G36*
X106850303Y-58657652D02*
G01*
X106802197Y-58705758D01*
X106754091Y-58657652D01*
X106802197Y-58609546D01*
X106850303Y-58657652D01*
G37*
G36*
X103963940Y-58561440D02*
G01*
X103915833Y-58609546D01*
X103867727Y-58561440D01*
X103915833Y-58513334D01*
X103963940Y-58561440D01*
G37*
G36*
X111238703Y-58442468D02*
G01*
X111372273Y-58513334D01*
X111462434Y-58588054D01*
X111375777Y-58607746D01*
X111353898Y-58608072D01*
X111179936Y-58559046D01*
X111131743Y-58513334D01*
X111123979Y-58428342D01*
X111238703Y-58442468D01*
G37*
G36*
X110185657Y-58449192D02*
G01*
X110172450Y-58506390D01*
X110121515Y-58513334D01*
X110042322Y-58478131D01*
X110057374Y-58449192D01*
X110171555Y-58437677D01*
X110185657Y-58449192D01*
G37*
G36*
X105873316Y-58167404D02*
G01*
X105975794Y-58256841D01*
X105984394Y-58278481D01*
X105938734Y-58318026D01*
X105843671Y-58229417D01*
X105830888Y-58209832D01*
X105819549Y-58143994D01*
X105873316Y-58167404D01*
G37*
G36*
X110025303Y-58272803D02*
G01*
X109977197Y-58320909D01*
X109929091Y-58272803D01*
X109977197Y-58224697D01*
X110025303Y-58272803D01*
G37*
G36*
X104926061Y-58131505D02*
G01*
X104848087Y-58214199D01*
X104781743Y-58224697D01*
X104653376Y-58204112D01*
X104637424Y-58186885D01*
X104712658Y-58124847D01*
X104781743Y-58093692D01*
X104905631Y-58091692D01*
X104926061Y-58131505D01*
G37*
G36*
X107989983Y-57974979D02*
G01*
X108092460Y-58064417D01*
X108101061Y-58086057D01*
X108055401Y-58125601D01*
X107960337Y-58036993D01*
X107947555Y-58017407D01*
X107936215Y-57951570D01*
X107989983Y-57974979D01*
G37*
G36*
X110313940Y-57887955D02*
G01*
X110265833Y-57936061D01*
X110217727Y-57887955D01*
X110265833Y-57839849D01*
X110313940Y-57887955D01*
G37*
G36*
X105969528Y-57686343D02*
G01*
X106072006Y-57775780D01*
X106080606Y-57797421D01*
X106034946Y-57836965D01*
X105939883Y-57748356D01*
X105927101Y-57728771D01*
X105915761Y-57662933D01*
X105969528Y-57686343D01*
G37*
G36*
X107908636Y-57791743D02*
G01*
X107860530Y-57839849D01*
X107812424Y-57791743D01*
X107860530Y-57743637D01*
X107908636Y-57791743D01*
G37*
G36*
X108293485Y-57791743D02*
G01*
X108245379Y-57839849D01*
X108197273Y-57791743D01*
X108245379Y-57743637D01*
X108293485Y-57791743D01*
G37*
G36*
X109315097Y-57717190D02*
G01*
X109351818Y-57764111D01*
X109280896Y-57831795D01*
X109136097Y-57825789D01*
X109019374Y-57750577D01*
X109018675Y-57749459D01*
X109050232Y-57683714D01*
X109157315Y-57673722D01*
X109315097Y-57717190D01*
G37*
G36*
X107114194Y-57572578D02*
G01*
X107103322Y-57630002D01*
X106997703Y-57681035D01*
X106842886Y-57680009D01*
X106799600Y-57643222D01*
X106831272Y-57570723D01*
X106940837Y-57551212D01*
X107114194Y-57572578D01*
G37*
G36*
X108101061Y-57406894D02*
G01*
X108052955Y-57455000D01*
X108004849Y-57406894D01*
X108052955Y-57358788D01*
X108101061Y-57406894D01*
G37*
%TO.C,R6*%
X157380000Y-92380000D02*
X156610000Y-92380000D01*
X149300000Y-92380000D02*
X150070000Y-92380000D01*
X150070000Y-91010000D02*
X150070000Y-93750000D01*
X156610000Y-93750000D02*
X156610000Y-91010000D01*
X150070000Y-93750000D02*
X156610000Y-93750000D01*
X156610000Y-91010000D02*
X150070000Y-91010000D01*
%TO.C,R5*%
X159920000Y-87300000D02*
X159150000Y-87300000D01*
X151840000Y-87300000D02*
X152610000Y-87300000D01*
X152610000Y-85930000D02*
X152610000Y-88670000D01*
X159150000Y-88670000D02*
X159150000Y-85930000D01*
X152610000Y-88670000D02*
X159150000Y-88670000D01*
X159150000Y-85930000D02*
X152610000Y-85930000D01*
%TO.C,K1*%
X121239500Y-60752500D02*
X119334500Y-60752500D01*
X124312500Y-55642500D02*
X124312500Y-68342500D01*
X116312500Y-55442500D02*
X118512500Y-55442500D01*
X119334500Y-60752500D02*
X119334500Y-61768500D01*
X120858500Y-60752500D02*
X120223500Y-61768500D01*
X124312500Y-68342500D02*
X116512500Y-68342500D01*
X119334500Y-61768500D02*
X121239500Y-61768500D01*
X118674500Y-61260500D02*
X119334500Y-61260500D01*
X121874500Y-61260500D02*
X121239500Y-61260500D01*
X121239500Y-60752500D02*
X121239500Y-61768500D01*
X116512500Y-68342500D02*
X116512500Y-55642500D01*
X116312500Y-57542500D02*
X116312500Y-55442500D01*
X121874500Y-60625500D02*
X121874500Y-61260500D01*
X116512500Y-55642500D02*
X124312500Y-55642500D01*
X118674500Y-60625500D02*
X118674500Y-61260500D01*
%TO.C,J8*%
X122940000Y-74085000D02*
X125940000Y-74085000D01*
X131840000Y-80385000D02*
X134490000Y-80385000D01*
X127190000Y-80385000D02*
X130690000Y-80385000D01*
X123440000Y-80385000D02*
X126090000Y-80385000D01*
X122940000Y-77085000D02*
X122940000Y-74085000D01*
X126340000Y-80385000D02*
X126940000Y-80385000D01*
X130940000Y-80385000D02*
X131540000Y-80385000D01*
X123440000Y-74535000D02*
X134490000Y-74535000D01*
X134490000Y-80385000D02*
X134490000Y-74535000D01*
X123440000Y-80385000D02*
X123440000Y-74535000D01*
%TO.C,J7*%
X118990000Y-72060000D02*
X118990000Y-70730000D01*
X118990000Y-75930000D02*
X121650000Y-75930000D01*
X118990000Y-73330000D02*
X118990000Y-75930000D01*
X118990000Y-73330000D02*
X121650000Y-73330000D01*
X118990000Y-70730000D02*
X120320000Y-70730000D01*
X121650000Y-73330000D02*
X121650000Y-75930000D01*
%TO.C,J6*%
X155420000Y-79220000D02*
X158420000Y-79220000D01*
X164320000Y-85520000D02*
X166970000Y-85520000D01*
X159670000Y-85520000D02*
X163170000Y-85520000D01*
X155920000Y-85520000D02*
X158570000Y-85520000D01*
X155420000Y-82220000D02*
X155420000Y-79220000D01*
X158820000Y-85520000D02*
X159420000Y-85520000D01*
X163420000Y-85520000D02*
X164020000Y-85520000D01*
X155920000Y-79670000D02*
X166970000Y-79670000D01*
X166970000Y-85520000D02*
X166970000Y-79670000D01*
X155920000Y-85520000D02*
X155920000Y-79670000D01*
%TO.C,J1*%
X129210000Y-98790000D02*
X147050000Y-98790000D01*
X129210000Y-98790000D02*
X129210000Y-96130000D01*
X147050000Y-98790000D02*
X147050000Y-96130000D01*
X126610000Y-97460000D02*
X126610000Y-96130000D01*
X126610000Y-96130000D02*
X127940000Y-96130000D01*
X129210000Y-96130000D02*
X147050000Y-96130000D01*
%TO.C,J3*%
X152070000Y-98790000D02*
X164830000Y-98790000D01*
X152070000Y-98790000D02*
X152070000Y-96130000D01*
X164830000Y-98790000D02*
X164830000Y-96130000D01*
X149470000Y-97460000D02*
X149470000Y-96130000D01*
X149470000Y-96130000D02*
X150800000Y-96130000D01*
X152070000Y-96130000D02*
X164830000Y-96130000D01*
%TO.C,J2*%
X120066000Y-50530000D02*
X142986000Y-50530000D01*
X120066000Y-50530000D02*
X120066000Y-47870000D01*
X142986000Y-50530000D02*
X142986000Y-47870000D01*
X117466000Y-49200000D02*
X117466000Y-47870000D01*
X117466000Y-47870000D02*
X118796000Y-47870000D01*
X120066000Y-47870000D02*
X142986000Y-47870000D01*
%TO.C,J4*%
X146990000Y-50530000D02*
X164830000Y-50530000D01*
X146990000Y-50530000D02*
X146990000Y-47870000D01*
X164830000Y-50530000D02*
X164830000Y-47870000D01*
X144390000Y-49200000D02*
X144390000Y-47870000D01*
X144390000Y-47870000D02*
X145720000Y-47870000D01*
X146990000Y-47870000D02*
X164830000Y-47870000D01*
%TO.C,R3*%
X136600000Y-56820000D02*
X137370000Y-56820000D01*
X137370000Y-55450000D02*
X137370000Y-58190000D01*
X137370000Y-58190000D02*
X143910000Y-58190000D01*
X143910000Y-55450000D02*
X137370000Y-55450000D01*
X143910000Y-58190000D02*
X143910000Y-55450000D01*
X144680000Y-56820000D02*
X143910000Y-56820000D01*
%TO.C,R2*%
X144680000Y-72060000D02*
X143910000Y-72060000D01*
X143910000Y-73430000D02*
X143910000Y-70690000D01*
X143910000Y-70690000D02*
X137370000Y-70690000D01*
X137370000Y-73430000D02*
X143910000Y-73430000D01*
X137370000Y-70690000D02*
X137370000Y-73430000D01*
X136600000Y-72060000D02*
X137370000Y-72060000D01*
%TO.C,C2*%
X133020000Y-87300000D02*
G75*
G03*
X122780000Y-87300000I-5120000J0D01*
G01*
X122780000Y-87300000D02*
G75*
G03*
X133020000Y-87300000I5120000J0D01*
G01*
X122819000Y-87899000D02*
X122819000Y-86701000D01*
X122859000Y-88162000D02*
X122859000Y-86438000D01*
X122899000Y-88362000D02*
X122899000Y-86238000D01*
X122939000Y-88530000D02*
X122939000Y-86070000D01*
X122979000Y-88678000D02*
X122979000Y-85922000D01*
X123019000Y-88810000D02*
X123019000Y-85790000D01*
X123059000Y-88930000D02*
X123059000Y-85670000D01*
X123099000Y-89042000D02*
X123099000Y-85558000D01*
X123139000Y-89146000D02*
X123139000Y-85454000D01*
X123179000Y-89244000D02*
X123179000Y-85356000D01*
X123219000Y-89337000D02*
X123219000Y-85263000D01*
X123259000Y-89425000D02*
X123259000Y-85175000D01*
X123299000Y-89509000D02*
X123299000Y-85091000D01*
X123339000Y-89589000D02*
X123339000Y-85011000D01*
X123379000Y-89665000D02*
X123379000Y-84935000D01*
X123419000Y-89739000D02*
X123419000Y-84861000D01*
X123459000Y-89810000D02*
X123459000Y-84790000D01*
X123499000Y-89879000D02*
X123499000Y-84721000D01*
X123539000Y-89945000D02*
X123539000Y-84655000D01*
X123579000Y-90009000D02*
X123579000Y-84591000D01*
X123619000Y-90070000D02*
X123619000Y-84530000D01*
X123659000Y-90130000D02*
X123659000Y-84470000D01*
X123699000Y-90189000D02*
X123699000Y-84411000D01*
X123739000Y-90245000D02*
X123739000Y-84355000D01*
X123779000Y-90300000D02*
X123779000Y-84300000D01*
X123819000Y-90354000D02*
X123819000Y-84246000D01*
X123859000Y-90406000D02*
X123859000Y-84194000D01*
X123899000Y-90456000D02*
X123899000Y-84144000D01*
X123939000Y-90506000D02*
X123939000Y-84094000D01*
X123979000Y-90554000D02*
X123979000Y-84046000D01*
X124019000Y-90601000D02*
X124019000Y-83999000D01*
X124059000Y-90647000D02*
X124059000Y-83953000D01*
X124099000Y-90692000D02*
X124099000Y-83908000D01*
X124139000Y-90736000D02*
X124139000Y-83864000D01*
X124179000Y-86059000D02*
X124179000Y-83822000D01*
X124179000Y-90778000D02*
X124179000Y-88541000D01*
X124219000Y-86059000D02*
X124219000Y-83780000D01*
X124219000Y-90820000D02*
X124219000Y-88541000D01*
X124259000Y-86059000D02*
X124259000Y-83739000D01*
X124259000Y-90861000D02*
X124259000Y-88541000D01*
X124299000Y-86059000D02*
X124299000Y-83699000D01*
X124299000Y-90901000D02*
X124299000Y-88541000D01*
X124339000Y-86059000D02*
X124339000Y-83660000D01*
X124339000Y-90940000D02*
X124339000Y-88541000D01*
X124379000Y-86059000D02*
X124379000Y-83621000D01*
X124379000Y-90979000D02*
X124379000Y-88541000D01*
X124419000Y-86059000D02*
X124419000Y-83584000D01*
X124419000Y-91016000D02*
X124419000Y-88541000D01*
X124459000Y-86059000D02*
X124459000Y-83547000D01*
X124459000Y-91053000D02*
X124459000Y-88541000D01*
X124499000Y-86059000D02*
X124499000Y-83511000D01*
X124499000Y-91089000D02*
X124499000Y-88541000D01*
X124539000Y-86059000D02*
X124539000Y-83476000D01*
X124539000Y-91124000D02*
X124539000Y-88541000D01*
X124579000Y-86059000D02*
X124579000Y-83442000D01*
X124579000Y-91158000D02*
X124579000Y-88541000D01*
X124619000Y-86059000D02*
X124619000Y-83408000D01*
X124619000Y-91192000D02*
X124619000Y-88541000D01*
X124659000Y-86059000D02*
X124659000Y-83375000D01*
X124659000Y-91225000D02*
X124659000Y-88541000D01*
X124699000Y-86059000D02*
X124699000Y-83343000D01*
X124699000Y-91257000D02*
X124699000Y-88541000D01*
X124739000Y-86059000D02*
X124739000Y-83311000D01*
X124739000Y-91289000D02*
X124739000Y-88541000D01*
X124779000Y-86059000D02*
X124779000Y-83280000D01*
X124779000Y-91320000D02*
X124779000Y-88541000D01*
X124819000Y-86059000D02*
X124819000Y-83250000D01*
X124819000Y-91350000D02*
X124819000Y-88541000D01*
X124859000Y-86059000D02*
X124859000Y-83220000D01*
X124859000Y-91380000D02*
X124859000Y-88541000D01*
X124899000Y-86059000D02*
X124899000Y-83190000D01*
X124899000Y-91410000D02*
X124899000Y-88541000D01*
X124939000Y-86059000D02*
X124939000Y-83162000D01*
X124939000Y-91438000D02*
X124939000Y-88541000D01*
X124979000Y-86059000D02*
X124979000Y-83134000D01*
X124979000Y-91466000D02*
X124979000Y-88541000D01*
X125019000Y-86059000D02*
X125019000Y-83106000D01*
X125019000Y-91494000D02*
X125019000Y-88541000D01*
X125059000Y-86059000D02*
X125059000Y-83079000D01*
X125059000Y-91521000D02*
X125059000Y-88541000D01*
X125099000Y-86059000D02*
X125099000Y-83053000D01*
X125099000Y-91547000D02*
X125099000Y-88541000D01*
X125139000Y-86059000D02*
X125139000Y-83027000D01*
X125139000Y-91573000D02*
X125139000Y-88541000D01*
X125179000Y-86059000D02*
X125179000Y-83002000D01*
X125179000Y-91598000D02*
X125179000Y-88541000D01*
X125219000Y-86059000D02*
X125219000Y-82977000D01*
X125219000Y-91623000D02*
X125219000Y-88541000D01*
X125259000Y-86059000D02*
X125259000Y-82953000D01*
X125259000Y-91647000D02*
X125259000Y-88541000D01*
X125299000Y-86059000D02*
X125299000Y-82929000D01*
X125299000Y-91671000D02*
X125299000Y-88541000D01*
X125339000Y-86059000D02*
X125339000Y-82905000D01*
X125339000Y-91695000D02*
X125339000Y-88541000D01*
X125379000Y-86059000D02*
X125379000Y-82883000D01*
X125379000Y-91717000D02*
X125379000Y-88541000D01*
X125419000Y-86059000D02*
X125419000Y-82860000D01*
X125419000Y-91740000D02*
X125419000Y-88541000D01*
X125459000Y-86059000D02*
X125459000Y-82838000D01*
X125459000Y-91762000D02*
X125459000Y-88541000D01*
X125499000Y-86059000D02*
X125499000Y-82817000D01*
X125499000Y-91783000D02*
X125499000Y-88541000D01*
X125539000Y-86059000D02*
X125539000Y-82796000D01*
X125539000Y-91804000D02*
X125539000Y-88541000D01*
X125579000Y-86059000D02*
X125579000Y-82775000D01*
X125579000Y-91825000D02*
X125579000Y-88541000D01*
X125619000Y-86059000D02*
X125619000Y-82755000D01*
X125619000Y-91845000D02*
X125619000Y-88541000D01*
X125659000Y-86059000D02*
X125659000Y-82736000D01*
X125659000Y-91864000D02*
X125659000Y-88541000D01*
X125699000Y-86059000D02*
X125699000Y-82716000D01*
X125699000Y-91884000D02*
X125699000Y-88541000D01*
X125739000Y-86059000D02*
X125739000Y-82697000D01*
X125739000Y-91903000D02*
X125739000Y-88541000D01*
X125779000Y-86059000D02*
X125779000Y-82679000D01*
X125779000Y-91921000D02*
X125779000Y-88541000D01*
X125819000Y-86059000D02*
X125819000Y-82661000D01*
X125819000Y-91939000D02*
X125819000Y-88541000D01*
X125859000Y-86059000D02*
X125859000Y-82643000D01*
X125859000Y-91957000D02*
X125859000Y-88541000D01*
X125899000Y-86059000D02*
X125899000Y-82626000D01*
X125899000Y-91974000D02*
X125899000Y-88541000D01*
X125939000Y-86059000D02*
X125939000Y-82610000D01*
X125939000Y-91990000D02*
X125939000Y-88541000D01*
X125979000Y-86059000D02*
X125979000Y-82593000D01*
X125979000Y-92007000D02*
X125979000Y-88541000D01*
X126019000Y-86059000D02*
X126019000Y-82577000D01*
X126019000Y-92023000D02*
X126019000Y-88541000D01*
X126059000Y-86059000D02*
X126059000Y-82562000D01*
X126059000Y-92038000D02*
X126059000Y-88541000D01*
X126099000Y-86059000D02*
X126099000Y-82546000D01*
X126099000Y-92054000D02*
X126099000Y-88541000D01*
X126139000Y-86059000D02*
X126139000Y-82532000D01*
X126139000Y-92068000D02*
X126139000Y-88541000D01*
X126179000Y-86059000D02*
X126179000Y-82517000D01*
X126179000Y-92083000D02*
X126179000Y-88541000D01*
X126219000Y-86059000D02*
X126219000Y-82503000D01*
X126219000Y-92097000D02*
X126219000Y-88541000D01*
X126259000Y-86059000D02*
X126259000Y-82489000D01*
X126259000Y-92111000D02*
X126259000Y-88541000D01*
X126299000Y-86059000D02*
X126299000Y-82476000D01*
X126299000Y-92124000D02*
X126299000Y-88541000D01*
X126339000Y-86059000D02*
X126339000Y-82463000D01*
X126339000Y-92137000D02*
X126339000Y-88541000D01*
X126379000Y-86059000D02*
X126379000Y-82450000D01*
X126379000Y-92150000D02*
X126379000Y-88541000D01*
X126419000Y-86059000D02*
X126419000Y-82438000D01*
X126419000Y-92162000D02*
X126419000Y-88541000D01*
X126459000Y-86059000D02*
X126459000Y-82426000D01*
X126459000Y-92174000D02*
X126459000Y-88541000D01*
X126499000Y-86059000D02*
X126499000Y-82415000D01*
X126499000Y-92185000D02*
X126499000Y-88541000D01*
X126539000Y-86059000D02*
X126539000Y-82403000D01*
X126539000Y-92197000D02*
X126539000Y-88541000D01*
X126579000Y-86059000D02*
X126579000Y-82393000D01*
X126579000Y-92207000D02*
X126579000Y-88541000D01*
X126619000Y-86059000D02*
X126619000Y-82382000D01*
X126619000Y-92218000D02*
X126619000Y-88541000D01*
X126659000Y-92228000D02*
X126659000Y-82372000D01*
X126699000Y-92238000D02*
X126699000Y-82362000D01*
X126739000Y-92247000D02*
X126739000Y-82353000D01*
X126779000Y-92256000D02*
X126779000Y-82344000D01*
X126819000Y-92265000D02*
X126819000Y-82335000D01*
X126859000Y-92274000D02*
X126859000Y-82326000D01*
X126899000Y-92282000D02*
X126899000Y-82318000D01*
X126939000Y-92290000D02*
X126939000Y-82310000D01*
X126979000Y-92297000D02*
X126979000Y-82303000D01*
X127019000Y-92304000D02*
X127019000Y-82296000D01*
X127059000Y-92311000D02*
X127059000Y-82289000D01*
X127099000Y-92318000D02*
X127099000Y-82282000D01*
X127139000Y-92324000D02*
X127139000Y-82276000D01*
X127179000Y-92330000D02*
X127179000Y-82270000D01*
X127220000Y-92335000D02*
X127220000Y-82265000D01*
X127260000Y-92340000D02*
X127260000Y-82260000D01*
X127300000Y-92345000D02*
X127300000Y-82255000D01*
X127340000Y-92350000D02*
X127340000Y-82250000D01*
X127380000Y-92354000D02*
X127380000Y-82246000D01*
X127420000Y-92358000D02*
X127420000Y-82242000D01*
X127460000Y-92362000D02*
X127460000Y-82238000D01*
X127500000Y-92365000D02*
X127500000Y-82235000D01*
X127540000Y-92368000D02*
X127540000Y-82232000D01*
X127580000Y-92370000D02*
X127580000Y-82230000D01*
X127620000Y-92373000D02*
X127620000Y-82227000D01*
X127660000Y-92375000D02*
X127660000Y-82225000D01*
X127700000Y-92377000D02*
X127700000Y-82223000D01*
X127740000Y-92378000D02*
X127740000Y-82222000D01*
X127780000Y-92379000D02*
X127780000Y-82221000D01*
X127820000Y-92380000D02*
X127820000Y-82220000D01*
X127860000Y-92380000D02*
X127860000Y-82220000D01*
X127900000Y-92380000D02*
X127900000Y-82220000D01*
X132879646Y-90675000D02*
X132879646Y-89675000D01*
X133379646Y-90175000D02*
X132379646Y-90175000D01*
%TO.C,R1*%
X136600000Y-66980000D02*
X137370000Y-66980000D01*
X137370000Y-65610000D02*
X137370000Y-68350000D01*
X137370000Y-68350000D02*
X143910000Y-68350000D01*
X143910000Y-65610000D02*
X137370000Y-65610000D01*
X143910000Y-68350000D02*
X143910000Y-65610000D01*
X144680000Y-66980000D02*
X143910000Y-66980000D01*
%TO.C,R4*%
X144680000Y-61900000D02*
X143910000Y-61900000D01*
X143910000Y-63270000D02*
X143910000Y-60530000D01*
X143910000Y-60530000D02*
X137370000Y-60530000D01*
X137370000Y-63270000D02*
X143910000Y-63270000D01*
X137370000Y-60530000D02*
X137370000Y-63270000D01*
X136600000Y-61900000D02*
X137370000Y-61900000D01*
D12*
%TO.C,U1*%
X178390000Y-57130000D02*
X178390000Y-71530000D01*
X171690000Y-57130000D02*
X178390000Y-57130000D01*
X153690000Y-57130000D02*
X171690000Y-57130000D01*
X178390000Y-71530000D02*
X171690000Y-71530000D01*
X171690000Y-71530000D02*
X171690000Y-57130000D01*
X171690000Y-71530000D02*
X153690000Y-71530000D01*
X153690000Y-71530000D02*
X153690000Y-57130000D01*
D13*
X157830000Y-56380000D02*
G75*
G03*
X157630000Y-56380000I-100000J0D01*
G01*
X157630000Y-56380000D02*
G75*
G03*
X157830000Y-56380000I100000J0D01*
G01*
D11*
%TO.C,C1*%
X135120354Y-84425000D02*
X136120354Y-84425000D01*
X135620354Y-83925000D02*
X135620354Y-84925000D01*
X140600000Y-82220000D02*
X140600000Y-92380000D01*
X140640000Y-82220000D02*
X140640000Y-92380000D01*
X140680000Y-82220000D02*
X140680000Y-92380000D01*
X140720000Y-82221000D02*
X140720000Y-92379000D01*
X140760000Y-82222000D02*
X140760000Y-92378000D01*
X140800000Y-82223000D02*
X140800000Y-92377000D01*
X140840000Y-82225000D02*
X140840000Y-92375000D01*
X140880000Y-82227000D02*
X140880000Y-92373000D01*
X140920000Y-82230000D02*
X140920000Y-92370000D01*
X140960000Y-82232000D02*
X140960000Y-92368000D01*
X141000000Y-82235000D02*
X141000000Y-92365000D01*
X141040000Y-82238000D02*
X141040000Y-92362000D01*
X141080000Y-82242000D02*
X141080000Y-92358000D01*
X141120000Y-82246000D02*
X141120000Y-92354000D01*
X141160000Y-82250000D02*
X141160000Y-92350000D01*
X141200000Y-82255000D02*
X141200000Y-92345000D01*
X141240000Y-82260000D02*
X141240000Y-92340000D01*
X141280000Y-82265000D02*
X141280000Y-92335000D01*
X141321000Y-82270000D02*
X141321000Y-92330000D01*
X141361000Y-82276000D02*
X141361000Y-92324000D01*
X141401000Y-82282000D02*
X141401000Y-92318000D01*
X141441000Y-82289000D02*
X141441000Y-92311000D01*
X141481000Y-82296000D02*
X141481000Y-92304000D01*
X141521000Y-82303000D02*
X141521000Y-92297000D01*
X141561000Y-82310000D02*
X141561000Y-92290000D01*
X141601000Y-82318000D02*
X141601000Y-92282000D01*
X141641000Y-82326000D02*
X141641000Y-92274000D01*
X141681000Y-82335000D02*
X141681000Y-92265000D01*
X141721000Y-82344000D02*
X141721000Y-92256000D01*
X141761000Y-82353000D02*
X141761000Y-92247000D01*
X141801000Y-82362000D02*
X141801000Y-92238000D01*
X141841000Y-82372000D02*
X141841000Y-92228000D01*
X141881000Y-82382000D02*
X141881000Y-86059000D01*
X141881000Y-88541000D02*
X141881000Y-92218000D01*
X141921000Y-82393000D02*
X141921000Y-86059000D01*
X141921000Y-88541000D02*
X141921000Y-92207000D01*
X141961000Y-82403000D02*
X141961000Y-86059000D01*
X141961000Y-88541000D02*
X141961000Y-92197000D01*
X142001000Y-82415000D02*
X142001000Y-86059000D01*
X142001000Y-88541000D02*
X142001000Y-92185000D01*
X142041000Y-82426000D02*
X142041000Y-86059000D01*
X142041000Y-88541000D02*
X142041000Y-92174000D01*
X142081000Y-82438000D02*
X142081000Y-86059000D01*
X142081000Y-88541000D02*
X142081000Y-92162000D01*
X142121000Y-82450000D02*
X142121000Y-86059000D01*
X142121000Y-88541000D02*
X142121000Y-92150000D01*
X142161000Y-82463000D02*
X142161000Y-86059000D01*
X142161000Y-88541000D02*
X142161000Y-92137000D01*
X142201000Y-82476000D02*
X142201000Y-86059000D01*
X142201000Y-88541000D02*
X142201000Y-92124000D01*
X142241000Y-82489000D02*
X142241000Y-86059000D01*
X142241000Y-88541000D02*
X142241000Y-92111000D01*
X142281000Y-82503000D02*
X142281000Y-86059000D01*
X142281000Y-88541000D02*
X142281000Y-92097000D01*
X142321000Y-82517000D02*
X142321000Y-86059000D01*
X142321000Y-88541000D02*
X142321000Y-92083000D01*
X142361000Y-82532000D02*
X142361000Y-86059000D01*
X142361000Y-88541000D02*
X142361000Y-92068000D01*
X142401000Y-82546000D02*
X142401000Y-86059000D01*
X142401000Y-88541000D02*
X142401000Y-92054000D01*
X142441000Y-82562000D02*
X142441000Y-86059000D01*
X142441000Y-88541000D02*
X142441000Y-92038000D01*
X142481000Y-82577000D02*
X142481000Y-86059000D01*
X142481000Y-88541000D02*
X142481000Y-92023000D01*
X142521000Y-82593000D02*
X142521000Y-86059000D01*
X142521000Y-88541000D02*
X142521000Y-92007000D01*
X142561000Y-82610000D02*
X142561000Y-86059000D01*
X142561000Y-88541000D02*
X142561000Y-91990000D01*
X142601000Y-82626000D02*
X142601000Y-86059000D01*
X142601000Y-88541000D02*
X142601000Y-91974000D01*
X142641000Y-82643000D02*
X142641000Y-86059000D01*
X142641000Y-88541000D02*
X142641000Y-91957000D01*
X142681000Y-82661000D02*
X142681000Y-86059000D01*
X142681000Y-88541000D02*
X142681000Y-91939000D01*
X142721000Y-82679000D02*
X142721000Y-86059000D01*
X142721000Y-88541000D02*
X142721000Y-91921000D01*
X142761000Y-82697000D02*
X142761000Y-86059000D01*
X142761000Y-88541000D02*
X142761000Y-91903000D01*
X142801000Y-82716000D02*
X142801000Y-86059000D01*
X142801000Y-88541000D02*
X142801000Y-91884000D01*
X142841000Y-82736000D02*
X142841000Y-86059000D01*
X142841000Y-88541000D02*
X142841000Y-91864000D01*
X142881000Y-82755000D02*
X142881000Y-86059000D01*
X142881000Y-88541000D02*
X142881000Y-91845000D01*
X142921000Y-82775000D02*
X142921000Y-86059000D01*
X142921000Y-88541000D02*
X142921000Y-91825000D01*
X142961000Y-82796000D02*
X142961000Y-86059000D01*
X142961000Y-88541000D02*
X142961000Y-91804000D01*
X143001000Y-82817000D02*
X143001000Y-86059000D01*
X143001000Y-88541000D02*
X143001000Y-91783000D01*
X143041000Y-82838000D02*
X143041000Y-86059000D01*
X143041000Y-88541000D02*
X143041000Y-91762000D01*
X143081000Y-82860000D02*
X143081000Y-86059000D01*
X143081000Y-88541000D02*
X143081000Y-91740000D01*
X143121000Y-82883000D02*
X143121000Y-86059000D01*
X143121000Y-88541000D02*
X143121000Y-91717000D01*
X143161000Y-82905000D02*
X143161000Y-86059000D01*
X143161000Y-88541000D02*
X143161000Y-91695000D01*
X143201000Y-82929000D02*
X143201000Y-86059000D01*
X143201000Y-88541000D02*
X143201000Y-91671000D01*
X143241000Y-82953000D02*
X143241000Y-86059000D01*
X143241000Y-88541000D02*
X143241000Y-91647000D01*
X143281000Y-82977000D02*
X143281000Y-86059000D01*
X143281000Y-88541000D02*
X143281000Y-91623000D01*
X143321000Y-83002000D02*
X143321000Y-86059000D01*
X143321000Y-88541000D02*
X143321000Y-91598000D01*
X143361000Y-83027000D02*
X143361000Y-86059000D01*
X143361000Y-88541000D02*
X143361000Y-91573000D01*
X143401000Y-83053000D02*
X143401000Y-86059000D01*
X143401000Y-88541000D02*
X143401000Y-91547000D01*
X143441000Y-83079000D02*
X143441000Y-86059000D01*
X143441000Y-88541000D02*
X143441000Y-91521000D01*
X143481000Y-83106000D02*
X143481000Y-86059000D01*
X143481000Y-88541000D02*
X143481000Y-91494000D01*
X143521000Y-83134000D02*
X143521000Y-86059000D01*
X143521000Y-88541000D02*
X143521000Y-91466000D01*
X143561000Y-83162000D02*
X143561000Y-86059000D01*
X143561000Y-88541000D02*
X143561000Y-91438000D01*
X143601000Y-83190000D02*
X143601000Y-86059000D01*
X143601000Y-88541000D02*
X143601000Y-91410000D01*
X143641000Y-83220000D02*
X143641000Y-86059000D01*
X143641000Y-88541000D02*
X143641000Y-91380000D01*
X143681000Y-83250000D02*
X143681000Y-86059000D01*
X143681000Y-88541000D02*
X143681000Y-91350000D01*
X143721000Y-83280000D02*
X143721000Y-86059000D01*
X143721000Y-88541000D02*
X143721000Y-91320000D01*
X143761000Y-83311000D02*
X143761000Y-86059000D01*
X143761000Y-88541000D02*
X143761000Y-91289000D01*
X143801000Y-83343000D02*
X143801000Y-86059000D01*
X143801000Y-88541000D02*
X143801000Y-91257000D01*
X143841000Y-83375000D02*
X143841000Y-86059000D01*
X143841000Y-88541000D02*
X143841000Y-91225000D01*
X143881000Y-83408000D02*
X143881000Y-86059000D01*
X143881000Y-88541000D02*
X143881000Y-91192000D01*
X143921000Y-83442000D02*
X143921000Y-86059000D01*
X143921000Y-88541000D02*
X143921000Y-91158000D01*
X143961000Y-83476000D02*
X143961000Y-86059000D01*
X143961000Y-88541000D02*
X143961000Y-91124000D01*
X144001000Y-83511000D02*
X144001000Y-86059000D01*
X144001000Y-88541000D02*
X144001000Y-91089000D01*
X144041000Y-83547000D02*
X144041000Y-86059000D01*
X144041000Y-88541000D02*
X144041000Y-91053000D01*
X144081000Y-83584000D02*
X144081000Y-86059000D01*
X144081000Y-88541000D02*
X144081000Y-91016000D01*
X144121000Y-83621000D02*
X144121000Y-86059000D01*
X144121000Y-88541000D02*
X144121000Y-90979000D01*
X144161000Y-83660000D02*
X144161000Y-86059000D01*
X144161000Y-88541000D02*
X144161000Y-90940000D01*
X144201000Y-83699000D02*
X144201000Y-86059000D01*
X144201000Y-88541000D02*
X144201000Y-90901000D01*
X144241000Y-83739000D02*
X144241000Y-86059000D01*
X144241000Y-88541000D02*
X144241000Y-90861000D01*
X144281000Y-83780000D02*
X144281000Y-86059000D01*
X144281000Y-88541000D02*
X144281000Y-90820000D01*
X144321000Y-83822000D02*
X144321000Y-86059000D01*
X144321000Y-88541000D02*
X144321000Y-90778000D01*
X144361000Y-83864000D02*
X144361000Y-90736000D01*
X144401000Y-83908000D02*
X144401000Y-90692000D01*
X144441000Y-83953000D02*
X144441000Y-90647000D01*
X144481000Y-83999000D02*
X144481000Y-90601000D01*
X144521000Y-84046000D02*
X144521000Y-90554000D01*
X144561000Y-84094000D02*
X144561000Y-90506000D01*
X144601000Y-84144000D02*
X144601000Y-90456000D01*
X144641000Y-84194000D02*
X144641000Y-90406000D01*
X144681000Y-84246000D02*
X144681000Y-90354000D01*
X144721000Y-84300000D02*
X144721000Y-90300000D01*
X144761000Y-84355000D02*
X144761000Y-90245000D01*
X144801000Y-84411000D02*
X144801000Y-90189000D01*
X144841000Y-84470000D02*
X144841000Y-90130000D01*
X144881000Y-84530000D02*
X144881000Y-90070000D01*
X144921000Y-84591000D02*
X144921000Y-90009000D01*
X144961000Y-84655000D02*
X144961000Y-89945000D01*
X145001000Y-84721000D02*
X145001000Y-89879000D01*
X145041000Y-84790000D02*
X145041000Y-89810000D01*
X145081000Y-84861000D02*
X145081000Y-89739000D01*
X145121000Y-84935000D02*
X145121000Y-89665000D01*
X145161000Y-85011000D02*
X145161000Y-89589000D01*
X145201000Y-85091000D02*
X145201000Y-89509000D01*
X145241000Y-85175000D02*
X145241000Y-89425000D01*
X145281000Y-85263000D02*
X145281000Y-89337000D01*
X145321000Y-85356000D02*
X145321000Y-89244000D01*
X145361000Y-85454000D02*
X145361000Y-89146000D01*
X145401000Y-85558000D02*
X145401000Y-89042000D01*
X145441000Y-85670000D02*
X145441000Y-88930000D01*
X145481000Y-85790000D02*
X145481000Y-88810000D01*
X145521000Y-85922000D02*
X145521000Y-88678000D01*
X145561000Y-86070000D02*
X145561000Y-88530000D01*
X145601000Y-86238000D02*
X145601000Y-88362000D01*
X145641000Y-86438000D02*
X145641000Y-88162000D01*
X145681000Y-86701000D02*
X145681000Y-87899000D01*
X145720000Y-87300000D02*
G75*
G03*
X135480000Y-87300000I-5120000J0D01*
G01*
X135480000Y-87300000D02*
G75*
G03*
X145720000Y-87300000I5120000J0D01*
G01*
%TD*%
%LPC*%
D14*
%TO.C,J5*%
X164420000Y-74600000D03*
X162420000Y-74600000D03*
X160420000Y-74600000D03*
D15*
X158420000Y-74600000D03*
%TD*%
D16*
%TO.C,R6*%
X148260000Y-92380000D03*
D17*
X158420000Y-92380000D03*
%TD*%
D16*
%TO.C,R5*%
X150800000Y-87300000D03*
D17*
X160960000Y-87300000D03*
%TD*%
D18*
%TO.C,K1*%
X117912500Y-56942500D03*
D19*
X117912500Y-59482500D03*
X117912500Y-67102500D03*
X122992500Y-67102500D03*
X122992500Y-59482500D03*
X122992500Y-56942500D03*
%TD*%
D15*
%TO.C,J8*%
X125940000Y-77085000D03*
D14*
X127940000Y-77085000D03*
X129940000Y-77085000D03*
X131940000Y-77085000D03*
%TD*%
D20*
%TO.C,J7*%
X120320000Y-72060000D03*
D21*
X120320000Y-74600000D03*
%TD*%
D15*
%TO.C,J6*%
X158420000Y-82220000D03*
D14*
X160420000Y-82220000D03*
X162420000Y-82220000D03*
X164420000Y-82220000D03*
%TD*%
D20*
%TO.C,J1*%
X127940000Y-97460000D03*
D21*
X130480000Y-97460000D03*
X133020000Y-97460000D03*
X135560000Y-97460000D03*
X138100000Y-97460000D03*
X140640000Y-97460000D03*
X143180000Y-97460000D03*
X145720000Y-97460000D03*
%TD*%
D20*
%TO.C,J3*%
X150800000Y-97460000D03*
D21*
X153340000Y-97460000D03*
X155880000Y-97460000D03*
X158420000Y-97460000D03*
X160960000Y-97460000D03*
X163500000Y-97460000D03*
%TD*%
D20*
%TO.C,J2*%
X118796000Y-49200000D03*
D21*
X121336000Y-49200000D03*
X123876000Y-49200000D03*
X126416000Y-49200000D03*
X128956000Y-49200000D03*
X131496000Y-49200000D03*
X134036000Y-49200000D03*
X136576000Y-49200000D03*
X139116000Y-49200000D03*
X141656000Y-49200000D03*
%TD*%
D20*
%TO.C,J4*%
X145720000Y-49200000D03*
D21*
X148260000Y-49200000D03*
X150800000Y-49200000D03*
X153340000Y-49200000D03*
X155880000Y-49200000D03*
X158420000Y-49200000D03*
X160960000Y-49200000D03*
X163500000Y-49200000D03*
%TD*%
D16*
%TO.C,R3*%
X135560000Y-56820000D03*
D17*
X145720000Y-56820000D03*
%TD*%
D16*
%TO.C,R2*%
X145720000Y-72060000D03*
D17*
X135560000Y-72060000D03*
%TD*%
D22*
%TO.C,MH1*%
X115240000Y-49200000D03*
%TD*%
D19*
%TO.C,C2*%
X125400000Y-87300000D03*
D18*
X130400000Y-87300000D03*
%TD*%
D16*
%TO.C,R1*%
X135560000Y-66980000D03*
D17*
X145720000Y-66980000D03*
%TD*%
D16*
%TO.C,R4*%
X145720000Y-61900000D03*
D17*
X135560000Y-61900000D03*
%TD*%
D23*
%TO.C,U1*%
X157730000Y-60630000D03*
D24*
X157730000Y-63170000D03*
X157730000Y-65710000D03*
X157730000Y-68250000D03*
X155190000Y-60630000D03*
X155190000Y-63170000D03*
X155190000Y-65710000D03*
X155190000Y-68250000D03*
%TD*%
D22*
%TO.C,MH2*%
X113970000Y-97460000D03*
%TD*%
%TO.C,MH3*%
X166040000Y-64440000D03*
%TD*%
%TO.C,MH4*%
X166040000Y-92380000D03*
%TD*%
D18*
%TO.C,C1*%
X138100000Y-87300000D03*
D19*
X143100000Y-87300000D03*
%TD*%
%LPD*%
M02*
